<svg width="84" height="84" viewBox="0 0 84 84" fill="none" xmlns="http://www.w3.org/2000/svg">
<path d="M50.7035 54.2148L46.9235 67.4365C45.507 72.3856 38.493 72.3856 37.0765 67.4365L33.3007 54.2148C33.0617 53.3784 32.6134 52.6168 31.9983 52.0017C31.3832 51.3866 30.6216 50.9383 29.7852 50.6993L16.5635 46.9235C11.6144 45.507 11.6144 38.493 16.5635 37.0765L29.7852 33.3007C30.6216 33.0617 31.3832 32.6134 31.9983 31.9983C32.6134 31.3832 33.0617 30.6216 33.3007 29.7852L37.0765 16.5635C38.493 11.6144 45.507 11.6144 46.9235 16.5635L50.6993 29.7852C50.9383 30.6216 51.3866 31.3832 52.0017 31.9983C52.6168 32.6134 53.3784 33.0617 54.2148 33.3007L67.4365 37.0765C72.3856 38.493 72.3856 45.507 67.4365 46.9235L54.2148 50.6993C53.3784 50.9383 52.6168 51.3866 52.0017 52.0017C51.3866 52.6168 50.9383 53.3784 50.6993 54.2148M74.2969 74.9198L72.6928 81.3536C72.4794 82.2155 71.255 82.2155 71.0374 81.3536L69.4289 74.9198C69.3913 74.7705 69.3138 74.6341 69.2049 74.5252C69.096 74.4163 68.9597 74.3389 68.8103 74.3012L62.3765 72.6928C61.5147 72.4794 61.5147 71.255 62.3765 71.0374L68.8103 69.4289C68.9597 69.3913 69.096 69.3138 69.2049 69.2049C69.3138 69.096 69.3913 68.9597 69.4289 68.8103L71.0374 62.3765C71.2507 61.5147 72.4752 61.5147 72.6928 62.3765L74.3012 68.8103C74.3389 68.9597 74.4163 69.096 74.5252 69.2049C74.6341 69.3138 74.7705 69.3913 74.9198 69.4289L81.3536 71.0374C82.2155 71.2507 82.2155 72.4752 81.3536 72.6928L74.9198 74.3012C74.7705 74.3389 74.6341 74.4163 74.5252 74.5252C74.4163 74.6341 74.3346 74.7705 74.2969 74.9198ZM14.5668 15.1897L12.9626 21.6235C12.7493 22.4853 11.5206 22.4853 11.3072 21.6235L9.69879 15.1897C9.66111 15.0403 9.58371 14.904 9.47479 14.7951C9.36588 14.6861 9.22951 14.6087 9.08015 14.5711L2.64637 12.9626C1.78454 12.7493 1.78454 11.5206 2.64637 11.3072L9.08015 9.69879C9.22951 9.66111 9.36588 9.58371 9.47479 9.47479C9.58371 9.36588 9.66111 9.22951 9.69879 9.08015L11.3072 2.64637C11.5206 1.78454 12.7493 1.78454 12.9626 2.64637L14.5711 9.08015C14.6087 9.22951 14.6861 9.36588 14.7951 9.47479C14.904 9.58371 15.0403 9.66111 15.1897 9.69879L21.6235 11.3072C22.4853 11.5206 22.4853 12.7493 21.6235 12.9626L15.1897 14.5711C15.0403 14.6087 14.904 14.6861 14.7951 14.7951C14.6861 14.904 14.6045 15.0403 14.5668 15.1897Z" stroke="black" stroke-width="4" stroke-miterlimit="10" stroke-linecap="round" stroke-linejoin="round"/>
</svg>
