<svg width="35" height="36" viewBox="0 0 35 36" fill="none" xmlns="http://www.w3.org/2000/svg">
<path fill-rule="evenodd" clip-rule="evenodd" d="M20.9342 24.8564C20.9342 24.5973 21.1422 24.3884 21.4001 24.3884C21.6557 24.3884 21.8659 24.5973 21.8659 24.8564V27.4191C21.8659 29.8722 19.8856 31.863 17.4428 31.863H8.5931L4.51524 35.8673C4.38118 35.9986 4.18122 36.0363 4.00964 35.9632C3.83694 35.8902 3.72446 35.7212 3.72446 35.5317V31.8058C1.61459 31.4702 0 29.6335 0 27.4178V18.1934C0 15.7403 1.97922 13.7518 4.42311 13.7518H5.36727C5.62518 13.7518 5.83311 13.9619 5.83311 14.2199C5.83311 14.479 5.62519 14.6879 5.36727 14.6879H4.42197C2.49503 14.6879 0.931654 16.2586 0.931654 18.1946V27.419C0.931654 29.2876 2.38482 30.815 4.2175 30.921C4.46518 30.9347 4.65719 31.1391 4.65719 31.3868V34.4221L8.08062 31.0604C8.1681 30.9736 8.28399 30.9279 8.4067 30.9279H17.4449C19.373 30.9279 20.9364 29.3572 20.9364 27.4201L20.9342 24.8564ZM30.1315 23.3268V28.3209C30.1315 28.5093 30.0179 28.6794 29.8463 28.7524C29.6736 28.8255 29.4737 28.7878 29.3407 28.6565L23.9688 23.3804H12.3446C9.23155 23.3804 6.70805 20.8451 6.70805 17.7174V5.66304C6.70805 2.53535 9.23149 0 12.3446 0H29.3634C32.4765 0 35 2.53529 35 5.66304V17.7174C35 20.5837 32.881 22.9511 30.1328 23.3278L30.1315 23.3268ZM29.6384 22.4353C32.1096 22.2926 34.0682 20.2344 34.0682 17.7164V5.66208C34.0682 3.05146 31.9606 0.933872 29.3621 0.933872H12.3433C9.74488 0.933872 7.63719 3.05137 7.63719 5.66208V17.7164C7.63719 20.327 9.74479 22.4446 12.3433 22.4446H24.156C24.2787 22.4446 24.3946 22.4925 24.4821 22.577L29.1995 27.2103V22.9023C29.1995 22.6534 29.3916 22.4491 29.637 22.4342L29.6384 22.4353ZM22.9737 18.8382C22.9737 18.8382 22.9441 18.8714 22.9362 18.8816C22.7146 19.1316 22.4067 19.288 22.0738 19.3165C21.7273 19.3474 21.3842 19.2378 21.1195 19.014L20.4639 18.4616L20.2821 18.6442C20.0367 18.8908 19.7049 19.03 19.3572 19.03C19.0107 19.03 18.6778 18.8908 18.4335 18.6442L18.362 18.5746C18.1938 18.4056 18.0756 18.1944 18.0177 17.9673C17.9745 17.9707 17.9302 17.973 17.887 17.973C17.5394 17.973 17.2065 17.8337 16.9622 17.5883L16.8906 17.5164C16.7361 17.3612 16.6247 17.1717 16.5634 16.9639C16.4918 16.9776 16.4191 16.9833 16.3464 16.9833C15.9999 16.9833 15.667 16.8441 15.4227 16.5986L15.3511 16.5267C15.1068 16.2813 14.9682 15.9491 14.9671 15.6032C14.7069 15.561 14.4547 15.4377 14.2536 15.2368L14.182 15.1649C13.8025 14.7825 13.7048 14.2243 13.8911 13.7517C13.3571 13.2517 12.6618 12.7289 12.1323 12.3522C11.9767 12.4618 11.8006 12.5417 11.6119 12.5828C11.2416 12.6673 10.8518 12.5976 10.5303 12.3933L9.42593 11.689C9.10438 11.4835 8.87716 11.1571 8.79421 10.7849C8.71127 10.4105 8.77944 10.019 8.98509 9.6959L11.914 5.06353C12.1186 4.74048 12.4435 4.51219 12.8162 4.42885C13.1866 4.34552 13.5763 4.41401 13.8978 4.61834L15.0022 5.3238C15.3237 5.52813 15.551 5.8546 15.6339 6.22789C15.6646 6.36259 15.6748 6.49842 15.6657 6.63426C16.1236 6.80662 16.5917 6.86256 17.0644 6.80662C18.0471 6.69019 18.8618 6.68791 19.8434 6.91164C20.0911 6.96872 20.4524 7.1662 20.8546 7.45273C21.2557 7.16735 21.617 6.96874 21.8624 6.91164C22.8441 6.68791 23.6587 6.68905 24.6415 6.80662C25.1141 6.86256 25.5823 6.80662 26.0401 6.63426C26.031 6.49842 26.0413 6.36258 26.0719 6.22789C26.1549 5.85349 26.3821 5.52815 26.7037 5.3238L27.808 4.61834C28.1296 4.41401 28.5193 4.34552 28.8897 4.42885C29.2623 4.51218 29.5861 4.74048 29.7918 5.06353L32.7208 9.6959C32.9253 10.019 32.9946 10.4105 32.9116 10.7849C32.8287 11.157 32.6015 11.4835 32.2799 11.689L31.1756 12.3933C30.854 12.5976 30.4643 12.6684 30.0939 12.5828C29.9053 12.5417 29.7292 12.4618 29.5747 12.3522C29.052 12.7266 28.4158 13.2152 27.8772 13.7289C27.8102 13.7928 27.7216 13.8761 27.633 13.9583C28.0068 14.4377 28.0102 15.1284 27.6057 15.6135L27.5523 15.6774C27.5523 15.6774 27.5273 15.7071 27.5205 15.7151C27.2762 15.9936 26.9354 16.1443 26.5911 16.1591C26.5604 16.4103 26.4593 16.65 26.2946 16.8475L26.2434 16.9068C26.2434 16.9068 26.2116 16.9445 26.2025 16.9548C25.981 17.2036 25.6731 17.36 25.3413 17.3886C25.2288 17.3977 25.1175 17.3931 25.0096 17.3737C24.9596 17.5598 24.871 17.7333 24.746 17.8817L24.6937 17.9445C24.6937 17.9445 24.6676 17.9764 24.6608 17.9856C24.4381 18.2367 24.129 18.3942 23.7939 18.4239C23.6121 18.4399 23.4291 18.4171 23.2587 18.3577C23.2076 18.5084 23.1292 18.6488 23.0258 18.7709L22.9737 18.8382ZM26.8424 15.0758L26.8935 15.0142C27.0276 14.8532 27.006 14.6158 26.8469 14.4811L25.9289 13.7072L22.4182 10.842C22.258 10.7119 22.0319 10.7027 21.8626 10.8226L20.147 12.0383C19.5449 12.5269 18.7018 12.3785 18.1678 11.9139C17.8304 11.6205 17.6281 11.2096 17.652 10.7929C17.6668 10.5076 17.7827 10.2096 18.0576 9.93681C18.0849 9.90942 19.0949 8.8912 20.0891 8.05447C19.913 7.93804 19.7607 7.85471 19.638 7.82617C18.7688 7.62869 18.0474 7.6344 17.1748 7.73827C16.5499 7.81133 15.9296 7.73713 15.3262 7.5054L12.7199 11.624C13.2516 12.0042 13.931 12.5178 14.4707 13.0167L14.9604 12.5247C15.4705 12.0121 16.2988 12.0121 16.8101 12.5247L16.8658 12.5806L16.9135 12.632C17.0657 12.7952 17.168 12.9881 17.2202 13.1913C17.2702 13.1856 17.3202 13.1822 17.3714 13.1822C17.7179 13.1822 18.0508 13.3215 18.2962 13.568L18.3576 13.6297L18.4075 13.6822C18.57 13.8614 18.6814 14.0828 18.7257 14.318H18.7666C19.1143 14.318 19.446 14.455 19.6914 14.7027L19.7482 14.7598L19.7857 14.7997C20.0152 15.0417 20.1448 15.367 20.1448 15.7026V15.7255C20.405 15.7723 20.647 15.8978 20.8356 16.0873L20.8924 16.1455L20.9378 16.1912C21.1628 16.4332 21.29 16.7551 21.29 17.0884C21.29 17.3327 21.2219 17.569 21.098 17.7756L21.7172 18.2984C21.7945 18.3624 21.8933 18.3932 21.9922 18.3852C22.0865 18.3783 22.174 18.3338 22.2376 18.2642C22.241 18.2596 22.2546 18.2448 22.2546 18.2448L22.3126 18.1752C22.3762 18.0975 22.4069 17.9982 22.3989 17.8989C22.3898 17.7985 22.3421 17.706 22.2671 17.6421L22.1535 17.5473C21.957 17.3807 21.9308 17.0862 22.0967 16.8887C22.2615 16.6912 22.5546 16.6649 22.7523 16.8316L23.4385 17.4104C23.5147 17.4743 23.6135 17.5062 23.7135 17.4983C23.8055 17.4891 23.8896 17.448 23.9532 17.3818C23.9578 17.3761 23.9839 17.3464 23.9839 17.3464L24.0339 17.2871C24.0975 17.2095 24.1282 17.1101 24.1202 17.0108C24.1112 16.9115 24.0646 16.8179 23.9884 16.754L22.6296 15.6079C22.433 15.4424 22.4069 15.1479 22.5728 14.9504C22.7386 14.7518 23.0318 14.7267 23.2283 14.8922L24.9849 16.3739C25.0621 16.4401 25.161 16.4697 25.2598 16.4618C25.3496 16.4549 25.4325 16.415 25.495 16.351C25.5018 16.3442 25.5268 16.3145 25.5268 16.3145L25.5791 16.2517C25.645 16.1741 25.6745 16.0748 25.6666 15.9743C25.6575 15.8784 25.6109 15.7871 25.5382 15.7232L25.5336 15.7186L24.0362 14.4561C23.8396 14.2895 23.8135 13.995 23.9794 13.7975C24.1452 13.6 24.4384 13.5737 24.6349 13.7404L26.2972 15.141C26.4494 15.27 26.6767 15.2552 26.8118 15.1102C26.8175 15.1045 26.8414 15.0782 26.8414 15.0782L26.8424 15.0758ZM26.3811 7.50778C25.7778 7.73837 25.1586 7.81371 24.5326 7.74065C23.66 7.63677 22.9385 7.63107 22.0693 7.82855C21.8319 7.8822 21.4728 8.14359 21.0718 8.45981C19.9947 9.30566 18.7176 10.599 18.7176 10.599L18.713 10.6024C18.6312 10.6823 18.5847 10.7634 18.5813 10.8478C18.5744 10.9871 18.6642 11.1104 18.7778 11.2086C18.9925 11.3958 19.3277 11.5076 19.5674 11.309L19.5947 11.2885L21.3262 10.0602C21.8364 9.69949 22.5215 9.72234 23.0055 10.1173L26.94 13.3318C27.0445 13.2359 27.1547 13.132 27.2365 13.0544C27.7887 12.5259 28.4431 12.0202 28.9862 11.6286L26.3811 7.50778ZM13.4003 5.41197C13.2867 5.33891 13.1504 5.3138 13.0197 5.34462C12.889 5.3743 12.7743 5.4542 12.7027 5.56836L9.7726 10.1984C9.69988 10.3125 9.67716 10.4507 9.70556 10.5831C9.7351 10.7143 9.81464 10.8285 9.92825 10.9015L11.0303 11.6059C11.144 11.6778 11.2803 11.7017 11.411 11.6732C11.5428 11.6435 11.6564 11.5636 11.7291 11.4495L14.6581 6.81711C14.7308 6.70296 14.7535 6.56598 14.7251 6.4347C14.6956 6.30343 14.616 6.18814 14.5036 6.11623L13.4003 5.41197ZM28.3069 5.41197L27.2025 6.11629C27.09 6.1882 27.0105 6.3035 26.981 6.43476C26.9514 6.56603 26.9753 6.70415 27.048 6.81716L29.9781 11.4495C30.0497 11.5637 30.1633 11.6436 30.2951 11.6733C30.4258 11.7029 30.5633 11.6778 30.6757 11.6059L31.7801 10.9016C31.8926 10.8285 31.9721 10.7144 32.0017 10.5831C32.0312 10.4518 32.0073 10.3126 31.9346 10.1984L29.0045 5.56841C28.9329 5.45426 28.8193 5.37436 28.6875 5.34467C28.5569 5.31385 28.4194 5.33891 28.3069 5.41197ZM17.7007 14.2942L17.6382 14.2302C17.5666 14.1606 17.4712 14.1195 17.3723 14.1195C17.2724 14.1195 17.1758 14.1606 17.1065 14.2302L16.0101 15.3318C15.9408 15.4014 15.8999 15.4984 15.8999 15.5989C15.8999 15.6994 15.9408 15.7964 16.0101 15.866L16.0817 15.9379C16.1532 16.0098 16.2475 16.0487 16.3475 16.0487C16.4475 16.0487 16.5441 16.0087 16.6134 15.9379L17.7098 14.8375C17.7791 14.7656 17.82 14.6697 17.82 14.5681C17.82 14.4757 17.7848 14.3866 17.7246 14.317L17.7007 14.2942ZM20.1775 16.7496C20.106 16.6776 20.0105 16.6388 19.9117 16.6388C19.8117 16.6388 19.7151 16.6788 19.6458 16.7496L19.0209 17.3774C18.9494 17.447 18.9107 17.544 18.9107 17.6445C18.9107 17.7438 18.9505 17.8408 19.0209 17.9116L19.0925 17.9835C19.1641 18.0531 19.2584 18.0942 19.3584 18.0942C19.4584 18.0942 19.5549 18.0531 19.6242 17.9835L20.2491 17.3557C20.3184 17.2861 20.3593 17.189 20.3593 17.0886C20.3593 16.995 20.3241 16.9048 20.2616 16.834L20.1775 16.7496ZM16.1532 13.1881C16.0066 13.0409 15.768 13.0409 15.6214 13.1881L14.8432 13.9701C14.6966 14.1173 14.6966 14.3571 14.8432 14.5043L14.9147 14.5762C15.0613 14.7235 15.2999 14.7235 15.4465 14.5762L16.2247 13.7943C16.3645 13.6539 16.3713 13.429 16.2441 13.2795L16.1532 13.1881ZM19.0993 15.4301L19.0334 15.3627C18.9641 15.2931 18.8675 15.2531 18.7675 15.2531C18.6675 15.2531 18.5709 15.2931 18.5016 15.3627L17.5495 16.3193C17.4802 16.3912 17.4405 16.4871 17.4405 16.5864C17.4405 16.6869 17.4802 16.7839 17.5495 16.8535L17.6211 16.9254C17.6927 16.9974 17.7881 17.0362 17.8892 17.0362C17.9881 17.0362 18.0847 16.9962 18.154 16.9254L19.1061 15.97C19.1777 15.8981 19.2163 15.8022 19.2163 15.7006C19.2163 15.6104 19.1833 15.5214 19.1231 15.4518L19.0993 15.4301Z" fill="white"></path>
</svg>