<svg width="66" height="89" viewBox="0 0 66 89" fill="none" xmlns="http://www.w3.org/2000/svg">
<path fill-rule="evenodd" clip-rule="evenodd" d="M13.8868 68.6763C13.8868 66.6802 13.2813 64.7271 12.1368 63.0865L4.77736 52.5165L4.7422 52.4696C1.75 48.0008 0 42.6258 0 36.8406C0 21.3206 12.605 8.71563 28.125 8.71563C29.8516 8.71563 31.25 10.1179 31.25 11.8406C31.25 13.5672 29.8516 14.9656 28.125 14.9656C16.051 14.9656 6.25 24.7703 6.25 36.8406C6.25 41.3289 7.6055 45.5008 9.9258 48.9736L17.2735 59.5206C18.7579 61.6651 19.6993 64.1339 20.0196 66.7042H26.043V48.8172L20.4024 43.1805C19.5899 42.3641 19.5899 41.0438 20.4024 40.2274C21.2188 39.4149 22.5352 39.4149 23.3516 40.2274L28.125 45.0086L32.9023 40.2274C33.7187 39.4149 35.0351 39.4149 35.8515 40.2274C36.664 41.0438 36.664 42.3641 35.8515 43.1805L30.2109 48.8172V66.7042H36.2343C36.5507 64.1339 37.4921 61.6651 38.9804 59.5206L46.3242 48.9736C48.6484 45.5009 50 41.3291 50 36.8406C50 35.1179 51.4023 33.7156 53.125 33.7156C54.8516 33.7156 56.25 35.1179 56.25 36.8406C56.25 42.6258 54.5 48.0006 51.5078 52.4696L51.4766 52.5165L44.1133 63.0865C42.9727 64.7271 42.3633 66.6803 42.3633 68.6763V77.4458C42.3633 80.395 41.1875 83.227 39.1016 85.3169C37.0118 87.4028 34.1797 88.5786 31.2266 88.5786H25.0274C22.0704 88.5786 19.2383 87.4028 17.1524 85.3169C15.0626 83.2271 13.8868 80.395 13.8868 77.4458L13.8868 68.6763ZM36.1138 72.9536H20.1368V77.4458C20.1368 78.7427 20.6563 79.981 21.5704 80.8989C22.4883 81.813 23.7306 82.3286 25.0274 82.3286H31.2266C32.5235 82.3286 33.7618 81.813 34.6797 80.8989C35.5976 79.9809 36.1133 78.7427 36.1133 77.4458L36.1138 72.9536ZM46.8088 8.2656C46.9259 8.07029 47.3791 7.32419 47.6877 6.7109C48.8205 4.4648 50.1643 1.2734 50.1643 1.2734C50.4885 0.50387 51.2463 0 52.0862 0C52.9221 0 53.68 0.50391 54.0042 1.2734C54.0042 1.2734 55.348 4.4648 56.4808 6.7109C56.7894 7.32418 57.2425 8.0703 57.3597 8.2656C57.5511 8.38279 58.2972 8.83201 58.9105 9.1406C61.1566 10.2773 64.3519 11.6211 64.3519 11.6211C65.1214 11.9453 65.6253 12.6992 65.6253 13.5391C65.6253 14.3789 65.1214 15.1368 64.3519 15.461C64.3519 15.461 61.1605 16.8008 58.9105 17.9376C58.3011 18.2462 57.5511 18.6954 57.3597 18.8126C57.2425 19.0079 56.7933 19.754 56.4808 20.3673C55.348 22.6134 54.0042 25.8048 54.0042 25.8048C53.68 26.5782 52.9222 27.0821 52.0862 27.0821C51.2463 27.0821 50.4885 26.5782 50.1643 25.8048C50.1643 25.8048 48.8205 22.6134 47.6877 20.3673C47.3791 19.754 46.9259 19.0079 46.8088 18.8165C46.6173 18.6993 45.8713 18.2462 45.258 17.9376C43.0119 16.8009 39.8166 15.461 39.8166 15.461C39.047 15.1368 38.5432 14.379 38.5432 13.5391C38.5432 12.6993 39.0471 11.9453 39.8166 11.6211C39.8166 11.6211 43.0119 10.2773 45.258 9.14059C45.8712 8.832 46.6174 8.38279 46.8088 8.2656ZM52.0861 7.2031C51.8595 7.68357 51.629 8.15232 51.4064 8.5898C50.7736 9.8437 50.1447 10.8398 49.7619 11.2148C49.3869 11.5937 48.3947 12.2265 47.1369 12.8632C46.6994 13.0819 46.2267 13.3124 45.7463 13.539C46.2267 13.7655 46.6994 13.996 47.1369 14.2187C48.3947 14.8515 49.3869 15.4882 49.7619 15.8632C50.1447 16.2421 50.7736 17.2382 51.4064 18.4882C51.629 18.9257 51.8595 19.3983 52.0861 19.8788C52.3126 19.3983 52.5431 18.9256 52.7618 18.4882C53.3986 17.2304 54.0313 16.2382 54.4063 15.8554C54.7852 15.4804 55.7813 14.8476 57.0313 14.2148C57.4727 13.996 57.9415 13.7656 58.4219 13.5351C57.9415 13.3124 57.4688 13.082 57.0313 12.8632C55.7774 12.2265 54.7813 11.5937 54.4063 11.2148C54.0274 10.8398 53.3985 9.8437 52.7618 8.5898C52.5392 8.1523 52.3087 7.68355 52.0861 7.2031Z" fill="black"/>
</svg>
