<svg width="36" height="36" viewBox="0 0 36 36" fill="none" xmlns="http://www.w3.org/2000/svg">
<mask id="path-1-inside-1_189_276" fill="white">
<path d="M33.673 22.0745H25.1154L21.5083 19.0551C21.3736 18.9466 21.1912 18.9214 21.0307 18.9902C20.8701 19.0591 20.7735 19.2153 20.7735 19.3847V22.0785H19.5706C18.2874 22.0785 17.2465 22.9455 17.2465 24.0138V34.0647C17.2465 35.1316 18.2901 36 19.5706 36H33.6731C34.9563 36 36 35.133 36 34.0647V24.0083C36 22.9414 34.9563 22.0731 33.6731 22.0731L33.673 22.0745ZM35.1085 34.0608C35.1085 34.6472 34.4622 35.1277 33.673 35.1277L19.5704 35.1264C18.7812 35.1264 18.1389 34.6485 18.1389 34.0595V24.0099C18.1389 23.4234 18.7812 22.943 19.5704 22.943H21.2196C21.4646 22.943 21.6659 22.7484 21.6659 22.5088V20.326L24.6623 22.8331C24.7426 22.9019 24.8446 22.9363 24.9508 22.9363H33.6717C34.4663 22.9363 35.1073 23.4142 35.1073 24.0033L35.1085 34.0608Z"></path>
<path d="M10.2413 26.6866C11.5299 25.9493 12.3994 24.5925 12.3994 23.0383C12.3994 20.7046 10.4468 18.8037 8.04646 18.8037C5.64749 18.8037 3.6935 20.7033 3.6935 23.0383C3.6935 24.5897 4.56301 25.9491 5.84619 26.6866C3.98608 27.1764 2.35852 28.2737 1.27551 29.8371C0.509418 30.9437 0.0671547 32.2224 0.000480824 33.5382C-0.00496212 33.6547 0.0358591 33.7725 0.120226 33.8586C0.205951 33.9446 0.320254 33.9923 0.441361 33.9923H15.6325C15.7522 33.9923 15.8733 33.9446 15.9536 33.8586C16.0394 33.7725 16.0829 33.6547 16.0734 33.5382C15.9169 30.2448 13.4907 27.5419 10.2399 26.6879L10.2413 26.6866ZM4.59283 23.0383C4.59283 21.1811 6.14406 19.6721 8.05318 19.6721C9.96231 19.6721 11.5135 21.1811 11.5135 23.0383C11.5135 24.8862 9.97046 26.3913 8.07224 26.4005H8.02733C6.13047 26.3873 4.59283 24.8862 4.59283 23.0383ZM0.940743 33.1238C1.06593 32.1257 1.44014 31.1674 2.0239 30.3215C3.34383 28.4167 5.58646 27.2769 8.02594 27.2677H8.07085C11.7229 27.2756 14.7452 29.8092 15.159 33.1187H0.939458L0.940743 33.1238Z"></path>
<path d="M31.7884 31.5423C27.913 31.5648 22.036 31.5807 21.5379 31.5502C21.3692 31.5198 21.1895 31.5886 21.0861 31.7369C20.9487 31.9368 21.0058 32.2042 21.2113 32.3405C21.3147 32.4054 21.3678 32.4411 24.39 32.4411C25.9412 32.4411 28.2734 32.4332 31.7924 32.4106C32.0373 32.4106 32.2387 32.2161 32.2333 31.9712C32.2333 31.7369 32.0332 31.5423 31.787 31.5423L31.7884 31.5423Z"></path>
<path d="M31.7884 28.5914C27.913 28.6139 22.036 28.6298 21.5379 28.5993C21.3692 28.5689 21.1895 28.6377 21.0861 28.786C20.9487 28.9859 21.0058 29.2533 21.2113 29.3896C21.3147 29.4544 21.3678 29.4902 24.39 29.4902C25.9412 29.4902 28.2734 29.4822 31.7924 29.4597C32.0373 29.4597 32.2387 29.2652 32.2333 29.0203C32.2278 28.778 32.0237 28.5781 31.787 28.5914L31.7884 28.5914Z"></path>
<path d="M31.7884 25.5931C27.913 25.6156 22.036 25.6314 21.5379 25.601C21.3692 25.5705 21.1895 25.6394 21.0861 25.7876C20.9487 25.9875 21.0058 26.2549 21.2113 26.3912C21.3147 26.4561 21.3678 26.4918 24.39 26.4918C25.9412 26.4918 28.2734 26.4839 31.7924 26.4614C32.0373 26.4614 32.2387 26.2668 32.2333 26.0219C32.2278 25.7797 32.0237 25.5824 31.787 25.593L31.7884 25.5931Z"></path>
<path d="M10.2413 7.88286C11.5299 7.14555 12.3994 5.78873 12.3994 4.23456C12.3994 1.90084 10.4468 0 8.04646 0C5.64749 0 3.6935 1.89955 3.6935 4.23456C3.6935 5.78595 4.56301 7.14541 5.84619 7.88286C3.98608 8.37264 2.35852 9.47001 1.27551 11.0333C0.509418 12.14 0.0671547 13.4187 0.000480824 14.7345C-0.00496212 14.851 0.0358591 14.9688 0.120226 15.0548C0.205951 15.1409 0.320254 15.1885 0.441361 15.1885H15.6325C15.7522 15.1885 15.8733 15.1409 15.9536 15.0548C16.0394 14.9688 16.0829 14.851 16.0734 14.7345C15.9169 11.4411 13.4907 8.73815 10.2399 7.88419L10.2413 7.88286ZM4.59283 4.23456C4.59283 2.37736 6.14406 0.868328 8.05318 0.868328C9.96231 0.868328 11.5135 2.37736 11.5135 4.23456C11.5135 6.08247 9.97046 7.58754 8.07224 7.59682H8.02733C6.13047 7.58358 4.59283 6.08382 4.59283 4.23456ZM0.940743 14.3201C1.06593 13.322 1.44014 12.3636 2.0239 11.5178C3.34383 9.61295 5.58646 8.47321 8.02594 8.46396H8.07085C11.7229 8.47191 14.7452 11.0055 15.159 14.3149L0.939458 14.3163L0.940743 14.3201Z"></path>
<path d="M19.2534 14.172H20.4563V16.8658C20.4563 17.0352 20.5597 17.1914 20.7135 17.2603C20.7706 17.2854 20.8387 17.2986 20.9013 17.2986C21.0047 17.2986 21.1108 17.2642 21.1897 17.1954L24.7969 14.176H33.3544C34.6376 14.176 35.6813 13.3089 35.6813 12.2407V2.18973C35.6813 1.12282 34.6376 0.254456 33.3544 0.254456L19.2519 0.25578C17.9687 0.25578 16.9277 1.12282 16.9277 2.19105V12.242C16.9223 13.3076 17.9673 14.1707 19.2519 14.1707L19.2534 14.172ZM17.8165 2.19115C17.8165 1.60473 18.4588 1.12424 19.248 1.12424H33.3505C34.1452 1.12424 34.7861 1.60212 34.7861 2.19115V12.2421C34.7861 12.8285 34.1397 13.309 33.3505 13.309H24.6348C24.5287 13.309 24.4253 13.3474 24.3464 13.4123L21.35 15.9194V13.7366C21.35 13.4983 21.15 13.3024 20.9037 13.3024H19.2545C18.4653 13.3024 17.823 12.8245 17.823 12.2355L17.8216 2.18962L17.8165 2.19115Z"></path>
<path d="M25.3753 10.5769C25.1181 10.8271 24.9753 11.1633 24.9753 11.5194C24.9753 11.8755 25.1181 12.2091 25.3753 12.4619C25.6434 12.7226 25.9958 12.851 26.3441 12.851C26.6925 12.851 27.0449 12.72 27.313 12.4619C27.5701 12.2117 27.713 11.8754 27.713 11.5194C27.713 11.1633 27.5701 10.8297 27.313 10.5769C26.7796 10.0567 25.9114 10.0607 25.3766 10.5769H25.3753ZM26.6857 11.8477C26.4979 12.0304 26.1944 12.0304 26.008 11.8477C25.9196 11.7616 25.8706 11.6438 25.8706 11.5167C25.8706 11.391 25.9196 11.2745 26.008 11.1858C26.1019 11.0945 26.2217 11.0521 26.3482 11.0521C26.4734 11.0521 26.5932 11.0958 26.6884 11.1858C26.7769 11.2719 26.8258 11.3897 26.8258 11.5167C26.8258 11.6438 26.7769 11.7603 26.687 11.8477H26.6857Z"></path>
<path d="M23.6349 6.15563C23.9234 6.34227 24.2718 6.40317 24.6065 6.33301C25.3073 6.19004 25.7564 5.51761 25.6094 4.83719C25.6094 4.82925 25.6039 4.81204 25.6039 4.7763C25.6039 4.38181 25.9387 4.06148 26.3442 4.06148C26.7497 4.06148 27.079 4.38182 27.079 4.7763C27.079 5.05428 26.9184 5.30446 26.664 5.42758C25.6665 5.90546 25.0406 6.84529 25.0406 7.8778V8.85867C25.0406 9.55627 25.6244 10.1215 26.3388 10.1215C27.0559 10.1215 27.6369 9.55363 27.6369 8.85867V7.8778C27.6369 7.81691 27.7036 7.7441 27.8056 7.69512C28.9555 7.14446 29.6739 6.02987 29.6739 4.77631C29.6739 2.9893 28.1798 1.53187 26.3388 1.53187C24.4977 1.53187 22.9995 2.98533 22.9995 4.77631C22.9995 4.9709 23.0227 5.16547 23.0621 5.35212C23.1383 5.68967 23.3397 5.9703 23.6336 6.15695L23.6349 6.15563ZM26.3469 2.4043C27.6927 2.4043 28.7908 3.47121 28.7908 4.7817C28.7908 5.69639 28.2642 6.5171 27.4219 6.91952C27.0028 7.1194 26.7524 7.47811 26.7524 7.88185V8.86271C26.7524 9.0798 26.57 9.2572 26.3469 9.2572C26.1237 9.2572 25.9414 9.07982 25.9414 8.86271V7.88185C25.9414 7.18424 26.37 6.54225 27.0653 6.21131C27.6273 5.94126 27.9798 5.39591 27.9798 4.78435C27.9798 3.91202 27.2477 3.20116 26.3523 3.20116C25.4515 3.20116 24.7208 3.91334 24.7208 4.78435C24.7208 4.86774 24.7289 4.94584 24.7439 5.01864C24.7888 5.23044 24.65 5.44356 24.4269 5.48592C24.3234 5.50842 24.2173 5.48592 24.1234 5.43032C24.0295 5.37473 23.9669 5.28339 23.9452 5.18014C23.9193 5.04909 23.9057 4.91937 23.9057 4.78037C23.8989 3.47252 25.0011 2.40429 26.3482 2.40429L26.3469 2.4043Z"></path>
</mask>
<path d="M33.673 22.0745H25.1154L21.5083 19.0551C21.3736 18.9466 21.1912 18.9214 21.0307 18.9902C20.8701 19.0591 20.7735 19.2153 20.7735 19.3847V22.0785H19.5706C18.2874 22.0785 17.2465 22.9455 17.2465 24.0138V34.0647C17.2465 35.1316 18.2901 36 19.5706 36H33.6731C34.9563 36 36 35.133 36 34.0647V24.0083C36 22.9414 34.9563 22.0731 33.6731 22.0731L33.673 22.0745ZM35.1085 34.0608C35.1085 34.6472 34.4622 35.1277 33.673 35.1277L19.5704 35.1264C18.7812 35.1264 18.1389 34.6485 18.1389 34.0595V24.0099C18.1389 23.4234 18.7812 22.943 19.5704 22.943H21.2196C21.4646 22.943 21.6659 22.7484 21.6659 22.5088V20.326L24.6623 22.8331C24.7426 22.9019 24.8446 22.9363 24.9508 22.9363H33.6717C34.4663 22.9363 35.1073 23.4142 35.1073 24.0033L35.1085 34.0608Z" fill="white"></path>
<path d="M10.2413 26.6866C11.5299 25.9493 12.3994 24.5925 12.3994 23.0383C12.3994 20.7046 10.4468 18.8037 8.04646 18.8037C5.64749 18.8037 3.6935 20.7033 3.6935 23.0383C3.6935 24.5897 4.56301 25.9491 5.84619 26.6866C3.98608 27.1764 2.35852 28.2737 1.27551 29.8371C0.509418 30.9437 0.0671547 32.2224 0.000480824 33.5382C-0.00496212 33.6547 0.0358591 33.7725 0.120226 33.8586C0.205951 33.9446 0.320254 33.9923 0.441361 33.9923H15.6325C15.7522 33.9923 15.8733 33.9446 15.9536 33.8586C16.0394 33.7725 16.0829 33.6547 16.0734 33.5382C15.9169 30.2448 13.4907 27.5419 10.2399 26.6879L10.2413 26.6866ZM4.59283 23.0383C4.59283 21.1811 6.14406 19.6721 8.05318 19.6721C9.96231 19.6721 11.5135 21.1811 11.5135 23.0383C11.5135 24.8862 9.97046 26.3913 8.07224 26.4005H8.02733C6.13047 26.3873 4.59283 24.8862 4.59283 23.0383ZM0.940743 33.1238C1.06593 32.1257 1.44014 31.1674 2.0239 30.3215C3.34383 28.4167 5.58646 27.2769 8.02594 27.2677H8.07085C11.7229 27.2756 14.7452 29.8092 15.159 33.1187H0.939458L0.940743 33.1238Z" fill="white"></path>
<path d="M31.7884 31.5423C27.913 31.5648 22.036 31.5807 21.5379 31.5502C21.3692 31.5198 21.1895 31.5886 21.0861 31.7369C20.9487 31.9368 21.0058 32.2042 21.2113 32.3405C21.3147 32.4054 21.3678 32.4411 24.39 32.4411C25.9412 32.4411 28.2734 32.4332 31.7924 32.4106C32.0373 32.4106 32.2387 32.2161 32.2333 31.9712C32.2333 31.7369 32.0332 31.5423 31.787 31.5423L31.7884 31.5423Z" fill="white"></path>
<path d="M31.7884 28.5914C27.913 28.6139 22.036 28.6298 21.5379 28.5993C21.3692 28.5689 21.1895 28.6377 21.0861 28.786C20.9487 28.9859 21.0058 29.2533 21.2113 29.3896C21.3147 29.4544 21.3678 29.4902 24.39 29.4902C25.9412 29.4902 28.2734 29.4822 31.7924 29.4597C32.0373 29.4597 32.2387 29.2652 32.2333 29.0203C32.2278 28.778 32.0237 28.5781 31.787 28.5914L31.7884 28.5914Z" fill="white"></path>
<path d="M31.7884 25.5931C27.913 25.6156 22.036 25.6314 21.5379 25.601C21.3692 25.5705 21.1895 25.6394 21.0861 25.7876C20.9487 25.9875 21.0058 26.2549 21.2113 26.3912C21.3147 26.4561 21.3678 26.4918 24.39 26.4918C25.9412 26.4918 28.2734 26.4839 31.7924 26.4614C32.0373 26.4614 32.2387 26.2668 32.2333 26.0219C32.2278 25.7797 32.0237 25.5824 31.787 25.593L31.7884 25.5931Z" fill="white"></path>
<path d="M10.2413 7.88286C11.5299 7.14555 12.3994 5.78873 12.3994 4.23456C12.3994 1.90084 10.4468 0 8.04646 0C5.64749 0 3.6935 1.89955 3.6935 4.23456C3.6935 5.78595 4.56301 7.14541 5.84619 7.88286C3.98608 8.37264 2.35852 9.47001 1.27551 11.0333C0.509418 12.14 0.0671547 13.4187 0.000480824 14.7345C-0.00496212 14.851 0.0358591 14.9688 0.120226 15.0548C0.205951 15.1409 0.320254 15.1885 0.441361 15.1885H15.6325C15.7522 15.1885 15.8733 15.1409 15.9536 15.0548C16.0394 14.9688 16.0829 14.851 16.0734 14.7345C15.9169 11.4411 13.4907 8.73815 10.2399 7.88419L10.2413 7.88286ZM4.59283 4.23456C4.59283 2.37736 6.14406 0.868328 8.05318 0.868328C9.96231 0.868328 11.5135 2.37736 11.5135 4.23456C11.5135 6.08247 9.97046 7.58754 8.07224 7.59682H8.02733C6.13047 7.58358 4.59283 6.08382 4.59283 4.23456ZM0.940743 14.3201C1.06593 13.322 1.44014 12.3636 2.0239 11.5178C3.34383 9.61295 5.58646 8.47321 8.02594 8.46396H8.07085C11.7229 8.47191 14.7452 11.0055 15.159 14.3149L0.939458 14.3163L0.940743 14.3201Z" fill="white"></path>
<path d="M19.2534 14.172H20.4563V16.8658C20.4563 17.0352 20.5597 17.1914 20.7135 17.2603C20.7706 17.2854 20.8387 17.2986 20.9013 17.2986C21.0047 17.2986 21.1108 17.2642 21.1897 17.1954L24.7969 14.176H33.3544C34.6376 14.176 35.6813 13.3089 35.6813 12.2407V2.18973C35.6813 1.12282 34.6376 0.254456 33.3544 0.254456L19.2519 0.25578C17.9687 0.25578 16.9277 1.12282 16.9277 2.19105V12.242C16.9223 13.3076 17.9673 14.1707 19.2519 14.1707L19.2534 14.172ZM17.8165 2.19115C17.8165 1.60473 18.4588 1.12424 19.248 1.12424H33.3505C34.1452 1.12424 34.7861 1.60212 34.7861 2.19115V12.2421C34.7861 12.8285 34.1397 13.309 33.3505 13.309H24.6348C24.5287 13.309 24.4253 13.3474 24.3464 13.4123L21.35 15.9194V13.7366C21.35 13.4983 21.15 13.3024 20.9037 13.3024H19.2545C18.4653 13.3024 17.823 12.8245 17.823 12.2355L17.8216 2.18962L17.8165 2.19115Z" fill="white"></path>
<path d="M25.3753 10.5769C25.1181 10.8271 24.9753 11.1633 24.9753 11.5194C24.9753 11.8755 25.1181 12.2091 25.3753 12.4619C25.6434 12.7226 25.9958 12.851 26.3441 12.851C26.6925 12.851 27.0449 12.72 27.313 12.4619C27.5701 12.2117 27.713 11.8754 27.713 11.5194C27.713 11.1633 27.5701 10.8297 27.313 10.5769C26.7796 10.0567 25.9114 10.0607 25.3766 10.5769H25.3753ZM26.6857 11.8477C26.4979 12.0304 26.1944 12.0304 26.008 11.8477C25.9196 11.7616 25.8706 11.6438 25.8706 11.5167C25.8706 11.391 25.9196 11.2745 26.008 11.1858C26.1019 11.0945 26.2217 11.0521 26.3482 11.0521C26.4734 11.0521 26.5932 11.0958 26.6884 11.1858C26.7769 11.2719 26.8258 11.3897 26.8258 11.5167C26.8258 11.6438 26.7769 11.7603 26.687 11.8477H26.6857Z" fill="white"></path>
<path d="M23.6349 6.15563C23.9234 6.34227 24.2718 6.40317 24.6065 6.33301C25.3073 6.19004 25.7564 5.51761 25.6094 4.83719C25.6094 4.82925 25.6039 4.81204 25.6039 4.7763C25.6039 4.38181 25.9387 4.06148 26.3442 4.06148C26.7497 4.06148 27.079 4.38182 27.079 4.7763C27.079 5.05428 26.9184 5.30446 26.664 5.42758C25.6665 5.90546 25.0406 6.84529 25.0406 7.8778V8.85867C25.0406 9.55627 25.6244 10.1215 26.3388 10.1215C27.0559 10.1215 27.6369 9.55363 27.6369 8.85867V7.8778C27.6369 7.81691 27.7036 7.7441 27.8056 7.69512C28.9555 7.14446 29.6739 6.02987 29.6739 4.77631C29.6739 2.9893 28.1798 1.53187 26.3388 1.53187C24.4977 1.53187 22.9995 2.98533 22.9995 4.77631C22.9995 4.9709 23.0227 5.16547 23.0621 5.35212C23.1383 5.68967 23.3397 5.9703 23.6336 6.15695L23.6349 6.15563ZM26.3469 2.4043C27.6927 2.4043 28.7908 3.47121 28.7908 4.7817C28.7908 5.69639 28.2642 6.5171 27.4219 6.91952C27.0028 7.1194 26.7524 7.47811 26.7524 7.88185V8.86271C26.7524 9.0798 26.57 9.2572 26.3469 9.2572C26.1237 9.2572 25.9414 9.07982 25.9414 8.86271V7.88185C25.9414 7.18424 26.37 6.54225 27.0653 6.21131C27.6273 5.94126 27.9798 5.39591 27.9798 4.78435C27.9798 3.91202 27.2477 3.20116 26.3523 3.20116C25.4515 3.20116 24.7208 3.91334 24.7208 4.78435C24.7208 4.86774 24.7289 4.94584 24.7439 5.01864C24.7888 5.23044 24.65 5.44356 24.4269 5.48592C24.3234 5.50842 24.2173 5.48592 24.1234 5.43032C24.0295 5.37473 23.9669 5.28339 23.9452 5.18014C23.9193 5.04909 23.9057 4.91937 23.9057 4.78037C23.8989 3.47252 25.0011 2.40429 26.3482 2.40429L26.3469 2.4043Z" fill="white"></path>
<path d="M33.673 22.0745H25.1154L21.5083 19.0551C21.3736 18.9466 21.1912 18.9214 21.0307 18.9902C20.8701 19.0591 20.7735 19.2153 20.7735 19.3847V22.0785H19.5706C18.2874 22.0785 17.2465 22.9455 17.2465 24.0138V34.0647C17.2465 35.1316 18.2901 36 19.5706 36H33.6731C34.9563 36 36 35.133 36 34.0647V24.0083C36 22.9414 34.9563 22.0731 33.6731 22.0731L33.673 22.0745ZM35.1085 34.0608C35.1085 34.6472 34.4622 35.1277 33.673 35.1277L19.5704 35.1264C18.7812 35.1264 18.1389 34.6485 18.1389 34.0595V24.0099C18.1389 23.4234 18.7812 22.943 19.5704 22.943H21.2196C21.4646 22.943 21.6659 22.7484 21.6659 22.5088V20.326L24.6623 22.8331C24.7426 22.9019 24.8446 22.9363 24.9508 22.9363H33.6717C34.4663 22.9363 35.1073 23.4142 35.1073 24.0033L35.1085 34.0608Z" stroke="white" stroke-width="4" mask="url(#path-1-inside-1_189_276)"></path>
<path d="M10.2413 26.6866C11.5299 25.9493 12.3994 24.5925 12.3994 23.0383C12.3994 20.7046 10.4468 18.8037 8.04646 18.8037C5.64749 18.8037 3.6935 20.7033 3.6935 23.0383C3.6935 24.5897 4.56301 25.9491 5.84619 26.6866C3.98608 27.1764 2.35852 28.2737 1.27551 29.8371C0.509418 30.9437 0.0671547 32.2224 0.000480824 33.5382C-0.00496212 33.6547 0.0358591 33.7725 0.120226 33.8586C0.205951 33.9446 0.320254 33.9923 0.441361 33.9923H15.6325C15.7522 33.9923 15.8733 33.9446 15.9536 33.8586C16.0394 33.7725 16.0829 33.6547 16.0734 33.5382C15.9169 30.2448 13.4907 27.5419 10.2399 26.6879L10.2413 26.6866ZM4.59283 23.0383C4.59283 21.1811 6.14406 19.6721 8.05318 19.6721C9.96231 19.6721 11.5135 21.1811 11.5135 23.0383C11.5135 24.8862 9.97046 26.3913 8.07224 26.4005H8.02733C6.13047 26.3873 4.59283 24.8862 4.59283 23.0383ZM0.940743 33.1238C1.06593 32.1257 1.44014 31.1674 2.0239 30.3215C3.34383 28.4167 5.58646 27.2769 8.02594 27.2677H8.07085C11.7229 27.2756 14.7452 29.8092 15.159 33.1187H0.939458L0.940743 33.1238Z" stroke="white" stroke-width="4" mask="url(#path-1-inside-1_189_276)"></path>
<path d="M31.7884 31.5423C27.913 31.5648 22.036 31.5807 21.5379 31.5502C21.3692 31.5198 21.1895 31.5886 21.0861 31.7369C20.9487 31.9368 21.0058 32.2042 21.2113 32.3405C21.3147 32.4054 21.3678 32.4411 24.39 32.4411C25.9412 32.4411 28.2734 32.4332 31.7924 32.4106C32.0373 32.4106 32.2387 32.2161 32.2333 31.9712C32.2333 31.7369 32.0332 31.5423 31.787 31.5423L31.7884 31.5423Z" stroke="white" stroke-width="4" mask="url(#path-1-inside-1_189_276)"></path>
<path d="M31.7884 28.5914C27.913 28.6139 22.036 28.6298 21.5379 28.5993C21.3692 28.5689 21.1895 28.6377 21.0861 28.786C20.9487 28.9859 21.0058 29.2533 21.2113 29.3896C21.3147 29.4544 21.3678 29.4902 24.39 29.4902C25.9412 29.4902 28.2734 29.4822 31.7924 29.4597C32.0373 29.4597 32.2387 29.2652 32.2333 29.0203C32.2278 28.778 32.0237 28.5781 31.787 28.5914L31.7884 28.5914Z" stroke="white" stroke-width="4" mask="url(#path-1-inside-1_189_276)"></path>
<path d="M31.7884 25.5931C27.913 25.6156 22.036 25.6314 21.5379 25.601C21.3692 25.5705 21.1895 25.6394 21.0861 25.7876C20.9487 25.9875 21.0058 26.2549 21.2113 26.3912C21.3147 26.4561 21.3678 26.4918 24.39 26.4918C25.9412 26.4918 28.2734 26.4839 31.7924 26.4614C32.0373 26.4614 32.2387 26.2668 32.2333 26.0219C32.2278 25.7797 32.0237 25.5824 31.787 25.593L31.7884 25.5931Z" stroke="white" stroke-width="4" mask="url(#path-1-inside-1_189_276)"></path>
<path d="M10.2413 7.88286C11.5299 7.14555 12.3994 5.78873 12.3994 4.23456C12.3994 1.90084 10.4468 0 8.04646 0C5.64749 0 3.6935 1.89955 3.6935 4.23456C3.6935 5.78595 4.56301 7.14541 5.84619 7.88286C3.98608 8.37264 2.35852 9.47001 1.27551 11.0333C0.509418 12.14 0.0671547 13.4187 0.000480824 14.7345C-0.00496212 14.851 0.0358591 14.9688 0.120226 15.0548C0.205951 15.1409 0.320254 15.1885 0.441361 15.1885H15.6325C15.7522 15.1885 15.8733 15.1409 15.9536 15.0548C16.0394 14.9688 16.0829 14.851 16.0734 14.7345C15.9169 11.4411 13.4907 8.73815 10.2399 7.88419L10.2413 7.88286ZM4.59283 4.23456C4.59283 2.37736 6.14406 0.868328 8.05318 0.868328C9.96231 0.868328 11.5135 2.37736 11.5135 4.23456C11.5135 6.08247 9.97046 7.58754 8.07224 7.59682H8.02733C6.13047 7.58358 4.59283 6.08382 4.59283 4.23456ZM0.940743 14.3201C1.06593 13.322 1.44014 12.3636 2.0239 11.5178C3.34383 9.61295 5.58646 8.47321 8.02594 8.46396H8.07085C11.7229 8.47191 14.7452 11.0055 15.159 14.3149L0.939458 14.3163L0.940743 14.3201Z" stroke="white" stroke-width="4" mask="url(#path-1-inside-1_189_276)"></path>
<path d="M19.2534 14.172H20.4563V16.8658C20.4563 17.0352 20.5597 17.1914 20.7135 17.2603C20.7706 17.2854 20.8387 17.2986 20.9013 17.2986C21.0047 17.2986 21.1108 17.2642 21.1897 17.1954L24.7969 14.176H33.3544C34.6376 14.176 35.6813 13.3089 35.6813 12.2407V2.18973C35.6813 1.12282 34.6376 0.254456 33.3544 0.254456L19.2519 0.25578C17.9687 0.25578 16.9277 1.12282 16.9277 2.19105V12.242C16.9223 13.3076 17.9673 14.1707 19.2519 14.1707L19.2534 14.172ZM17.8165 2.19115C17.8165 1.60473 18.4588 1.12424 19.248 1.12424H33.3505C34.1452 1.12424 34.7861 1.60212 34.7861 2.19115V12.2421C34.7861 12.8285 34.1397 13.309 33.3505 13.309H24.6348C24.5287 13.309 24.4253 13.3474 24.3464 13.4123L21.35 15.9194V13.7366C21.35 13.4983 21.15 13.3024 20.9037 13.3024H19.2545C18.4653 13.3024 17.823 12.8245 17.823 12.2355L17.8216 2.18962L17.8165 2.19115Z" stroke="white" stroke-width="4" mask="url(#path-1-inside-1_189_276)"></path>
<path d="M25.3753 10.5769C25.1181 10.8271 24.9753 11.1633 24.9753 11.5194C24.9753 11.8755 25.1181 12.2091 25.3753 12.4619C25.6434 12.7226 25.9958 12.851 26.3441 12.851C26.6925 12.851 27.0449 12.72 27.313 12.4619C27.5701 12.2117 27.713 11.8754 27.713 11.5194C27.713 11.1633 27.5701 10.8297 27.313 10.5769C26.7796 10.0567 25.9114 10.0607 25.3766 10.5769H25.3753ZM26.6857 11.8477C26.4979 12.0304 26.1944 12.0304 26.008 11.8477C25.9196 11.7616 25.8706 11.6438 25.8706 11.5167C25.8706 11.391 25.9196 11.2745 26.008 11.1858C26.1019 11.0945 26.2217 11.0521 26.3482 11.0521C26.4734 11.0521 26.5932 11.0958 26.6884 11.1858C26.7769 11.2719 26.8258 11.3897 26.8258 11.5167C26.8258 11.6438 26.7769 11.7603 26.687 11.8477H26.6857Z" stroke="white" stroke-width="4" mask="url(#path-1-inside-1_189_276)"></path>
<path d="M23.6349 6.15563C23.9234 6.34227 24.2718 6.40317 24.6065 6.33301C25.3073 6.19004 25.7564 5.51761 25.6094 4.83719C25.6094 4.82925 25.6039 4.81204 25.6039 4.7763C25.6039 4.38181 25.9387 4.06148 26.3442 4.06148C26.7497 4.06148 27.079 4.38182 27.079 4.7763C27.079 5.05428 26.9184 5.30446 26.664 5.42758C25.6665 5.90546 25.0406 6.84529 25.0406 7.8778V8.85867C25.0406 9.55627 25.6244 10.1215 26.3388 10.1215C27.0559 10.1215 27.6369 9.55363 27.6369 8.85867V7.8778C27.6369 7.81691 27.7036 7.7441 27.8056 7.69512C28.9555 7.14446 29.6739 6.02987 29.6739 4.77631C29.6739 2.9893 28.1798 1.53187 26.3388 1.53187C24.4977 1.53187 22.9995 2.98533 22.9995 4.77631C22.9995 4.9709 23.0227 5.16547 23.0621 5.35212C23.1383 5.68967 23.3397 5.9703 23.6336 6.15695L23.6349 6.15563ZM26.3469 2.4043C27.6927 2.4043 28.7908 3.47121 28.7908 4.7817C28.7908 5.69639 28.2642 6.5171 27.4219 6.91952C27.0028 7.1194 26.7524 7.47811 26.7524 7.88185V8.86271C26.7524 9.0798 26.57 9.2572 26.3469 9.2572C26.1237 9.2572 25.9414 9.07982 25.9414 8.86271V7.88185C25.9414 7.18424 26.37 6.54225 27.0653 6.21131C27.6273 5.94126 27.9798 5.39591 27.9798 4.78435C27.9798 3.91202 27.2477 3.20116 26.3523 3.20116C25.4515 3.20116 24.7208 3.91334 24.7208 4.78435C24.7208 4.86774 24.7289 4.94584 24.7439 5.01864C24.7888 5.23044 24.65 5.44356 24.4269 5.48592C24.3234 5.50842 24.2173 5.48592 24.1234 5.43032C24.0295 5.37473 23.9669 5.28339 23.9452 5.18014C23.9193 5.04909 23.9057 4.91937 23.9057 4.78037C23.8989 3.47252 25.0011 2.40429 26.3482 2.40429L26.3469 2.4043Z" stroke="white" stroke-width="4" mask="url(#path-1-inside-1_189_276)"></path>
</svg>