<svg width="32" height="32" viewBox="0 0 32 32" fill="#ffffff" xmlns="http://www.w3.org/2000/svg">
<path fill-rule="evenodd" clip-rule="evenodd" d="M8.2198 18.29L13.7114 23.7821C19.5491 21.451 23.8842 18.3838 26.7166 14.5835C28.4571 12.2486 29.6341 9.62792 30.2452 6.72574C29.7255 6.7386 29.2097 6.66785 28.7183 6.5199C27.9542 6.2909 27.2466 5.87409 26.6665 5.29514C26.0863 4.71493 25.6708 4.00734 25.4418 3.24316C25.2991 2.76716 25.2296 2.27057 25.236 1.76625C22.3494 2.37992 19.7444 3.5532 17.4201 5.28726C16.126 6.25214 14.9155 7.39197 13.7924 8.70421C13.7808 8.72093 13.768 8.73508 13.7525 8.75052C12.1536 10.6262 10.7296 12.8571 9.47676 15.4415C9.46904 15.4633 9.45875 15.4826 9.44717 15.5019C9.01751 16.3896 8.60844 17.3197 8.21995 18.2911L8.2198 18.29ZM17.5242 23.4577C19.6609 22.3912 21.5635 21.2051 23.2279 19.8992C23.2883 20.5244 23.2922 21.1574 23.2356 21.7993C23.152 22.7629 22.9359 23.7522 22.5808 24.7827C20.3824 26.616 19.6054 27.1344 16.3986 28.942C16.7575 28.273 17.0393 27.6143 17.2387 26.9672C17.6104 25.7579 17.7069 24.5872 17.5255 23.4564L17.5242 23.4577ZM24.3768 18.946C24.5415 19.9173 24.5827 20.9002 24.4952 21.9088C24.3974 23.0307 24.1415 24.1782 23.7144 25.3683C23.6783 25.4699 23.614 25.5638 23.5253 25.6397C20.7634 27.949 20.1808 28.2745 15.2473 31.0367L14.7663 31.3068C14.5527 31.4252 14.2787 31.4136 14.0716 31.2554C13.7963 31.0431 13.7461 30.6456 13.9584 30.3716C14.9695 29.058 15.6616 27.8011 16.0295 26.6009C16.3022 25.7171 16.4 24.8603 16.3228 24.0356C15.5226 24.4023 14.6929 24.7548 13.8311 25.0931C13.5957 25.2089 13.3011 25.169 13.1056 24.9735L12.6296 24.4975L11.2467 25.8817C10.9998 26.1287 10.5997 26.1287 10.3527 25.8817L6.12305 21.6516C5.87606 21.4046 5.87606 21.0045 6.12305 20.7575L7.50975 19.3707L7.03379 18.8947L7.03508 18.8934C6.86399 18.7223 6.79967 18.4599 6.89358 18.2193C7.23448 17.3419 7.59336 16.4966 7.96769 15.6836C7.1457 15.6077 6.29541 15.7067 5.41424 15.9769C4.21406 16.3474 2.95727 17.037 1.64394 18.0482C1.36866 18.2605 0.972442 18.209 0.7602 17.935C0.600688 17.7291 0.589112 17.4538 0.708745 17.2415L0.978883 16.7578C3.73816 11.8279 4.06619 11.2426 6.37269 8.48304C6.4473 8.39427 6.54249 8.32995 6.64412 8.29392C7.83402 7.8668 8.98276 7.6108 10.1032 7.51302C11.1066 7.42554 12.0842 7.4667 13.0516 7.63009C14.1746 6.35003 15.3786 5.23207 16.6625 4.27375C20.7572 1.22089 25.6606 -0.196765 31.3709 0.0219194C31.6989 0.0334981 31.9665 0.297231 31.9781 0.629163C32.1968 6.33998 30.7792 11.2439 27.7267 15.3403C26.7683 16.6229 25.6517 17.8271 24.3756 18.9463L24.3768 18.946ZM8.48885 26.849L4.41756 30.9206C4.17058 31.1677 4.17058 31.5677 4.41756 31.8147C4.66454 32.0618 5.06459 32.0618 5.31158 31.8147L9.38287 27.7431C9.62985 27.4961 9.62985 27.096 9.38287 26.849C9.13588 26.602 8.73583 26.602 8.48885 26.849ZM4.25916 22.6189L0.185238 26.6906C-0.0617461 26.9376 -0.0617461 27.3377 0.185238 27.5847C0.432222 27.8317 0.832271 27.8317 1.07926 27.5847L5.15054 23.513C5.39753 23.266 5.39753 22.8659 5.15054 22.6189C4.90485 22.3719 4.5048 22.3719 4.25781 22.6189H4.25916ZM6.37526 24.7339L0.245766 30.864C-0.00121854 31.111 -0.00121854 31.5111 0.245766 31.7581C0.49275 32.0051 0.892798 32.0051 1.13978 31.7581L7.26927 25.628C7.51626 25.381 7.51626 24.9809 7.26927 24.7339C7.02229 24.4869 6.62224 24.4869 6.37526 24.7339ZM11.666 23.6751L10.8003 24.5409L7.46465 21.205L8.33038 20.3392L11.666 23.6751ZM30.4727 5.45055C30.0006 5.49687 29.5259 5.44669 29.077 5.31161C28.5135 5.14179 27.99 4.83432 27.559 4.40206C27.1281 3.97108 26.8194 3.44749 26.6496 2.88398C26.5196 2.45044 26.4682 1.99374 26.5068 1.53703C27.8588 1.33119 29.2686 1.24114 30.7365 1.26687C30.7609 2.71546 30.6734 4.11131 30.4728 5.44921L30.4727 5.45055ZM12.0967 8.77989C10.7911 10.4446 9.60502 12.346 8.53983 14.4841C7.41167 14.304 6.24623 14.4018 5.04088 14.7723C4.39253 14.9717 3.73523 15.2509 3.06629 15.6124C4.87366 12.4051 5.39335 11.6267 7.22518 9.42962C8.25556 9.07455 9.24607 8.8584 10.2083 8.77607C10.845 8.71818 11.4728 8.72204 12.0954 8.78121L12.0967 8.77989ZM22.3285 9.67399C23.0051 10.3507 23.3421 11.2371 23.3421 12.1248H23.3383C23.3383 13.0124 23.0012 13.9001 22.3259 14.573C21.6492 15.2497 20.7629 15.5893 19.8779 15.5893C18.9942 15.5893 18.1079 15.2497 17.4299 14.573L17.4286 14.5743C16.7533 13.8988 16.4163 13.0112 16.4163 12.1261H16.415C16.415 11.2384 16.7546 10.352 17.4286 9.67528C18.1053 8.99857 18.9916 8.66152 19.8792 8.66152C20.7655 8.65767 21.6531 8.99729 22.3297 9.67399L22.3285 9.67399ZM22.0815 12.1222C22.0815 12.6831 21.8654 13.2466 21.4344 13.6789C21.0048 14.1086 20.4414 14.3221 19.8779 14.3221C19.3132 14.3221 18.7498 14.1086 18.3214 13.6802V13.6763C17.8905 13.2453 17.6744 12.6818 17.6744 12.1196H17.6782C17.6782 11.5561 17.8918 10.9926 18.3214 10.5629C18.7511 10.1333 19.3145 9.91971 19.8779 9.91971C20.4413 9.91971 21.0048 10.1333 21.4345 10.5629C21.8641 10.9926 22.0776 11.5561 22.0776 12.1196L22.0815 12.1222Z" fill="white"></path>
</svg>