<svg width="80" height="80" viewBox="0 0 80 80" fill="none" xmlns="http://www.w3.org/2000/svg">
<path d="M71.2438 64.5467C67.6539 69.1797 63.0756 72.9957 57.8427 75.6726C52.428 78.4391 46.3024 80 39.8134 80C28.8189 80 18.862 75.5198 11.6587 68.2866C4.45244 61.0465 0 51.0468 0 40C0 28.954 4.4593 18.9504 11.6587 11.7134C18.865 4.47331 28.8181 0 39.8134 0C46.2462 0 52.3319 1.5377 57.7233 4.26765C62.9364 6.90799 67.495 10.6708 71.0814 15.2371C71.6103 15.1109 72.1623 15.0445 72.7276 15.0445C74.6911 15.0445 76.4762 15.8482 77.7654 17.1435L77.7753 17.1534C79.0677 18.4553 79.8678 20.2487 79.8678 22.2215C79.8678 24.1411 79.1075 25.8947 77.8745 27.1866L77.6199 27.4456C78.2149 29.259 78.6876 31.1221 79.0215 33.0185C79.4182 35.2869 79.6264 37.6217 79.6264 39.9995C79.6264 42.3244 79.4248 44.6126 79.0413 46.8444C78.7206 48.7109 78.2711 50.5342 77.7058 52.2945L77.9075 52.4871C79.2 53.7889 80 55.5824 80 57.5551C80 59.4747 79.2397 61.2283 78.0067 62.5202L77.9075 62.6298C76.615 63.9283 74.8266 64.7321 72.8564 64.7321C72.3011 64.7321 71.7556 64.669 71.2399 64.5495L71.2438 64.5467ZM56.3093 72.6436C60.9239 70.2856 64.9698 66.9744 68.1863 62.9758L67.8128 62.6271C66.5203 61.3286 65.7203 59.5318 65.7203 57.5524C65.7203 57.2933 65.7368 57.0342 65.76 56.7818C61.2147 55.3405 56.574 54.2877 51.8891 53.6235L50.5305 53.4408C50.0346 58.7613 49.2545 63.5405 48.2595 67.4889C47.3472 71.1222 46.2067 74.1046 44.8844 76.2469C48.9438 75.6823 52.7916 74.4369 56.302 72.6435L56.3093 72.6436ZM14.0528 65.8785C19.5005 71.3517 26.6703 75.1016 34.6767 76.2375C34.1444 75.364 33.642 74.3477 33.1825 73.2053C31.7247 69.6084 30.5182 64.5934 29.6984 58.6751C28.0984 58.4659 26.6671 57.7253 25.5795 56.636C24.9052 55.9585 24.3663 55.1448 24.0027 54.2414C21.3318 54.7429 18.6938 55.3606 16.1055 56.1046L15.9568 56.1544C13.4345 56.8851 10.9388 57.732 8.48271 58.6951C10.0396 61.3221 11.9107 63.7366 14.0494 65.882L14.0528 65.8785ZM3.38245 39.9937C3.38245 45.6065 4.63862 50.9207 6.88642 55.6725C9.57063 54.6064 12.2911 53.6765 15.0348 52.8828L15.177 52.8496C17.9504 52.0525 20.7371 51.3916 23.5205 50.8768C23.6792 49.1664 24.4394 47.6287 25.5832 46.4829C26.4096 45.6593 27.4311 45.0316 28.5749 44.6862L28.5352 43.0821L28.4955 39.9967C28.4955 36.6822 28.6046 33.4275 28.8063 30.289L28.8294 29.9336C21.3586 29.0071 13.9803 27.1339 6.88283 24.3175C4.63503 29.0701 3.37886 34.3841 3.37886 39.9963L3.38245 39.9937ZM14.0528 14.109C11.9141 16.2577 10.043 18.6722 8.48608 21.2959C15.1635 23.9163 22.092 25.6665 29.0998 26.5466C29.2717 24.6901 29.48 22.9 29.718 21.1863C29.8436 20.2597 30.6964 19.6087 31.622 19.7383C32.5443 19.8645 33.1922 20.7213 33.0633 21.6513C32.8286 23.3252 32.6269 25.0787 32.4583 26.902C33.8831 27.0249 35.3111 27.1113 36.7425 27.1611C40.2167 27.2873 43.7009 27.2009 47.1682 26.902C46.6922 21.741 45.9385 17.1212 44.9832 13.3182C43.4428 7.18065 41.5949 3.38428 39.8132 3.38428C39.2247 3.38428 38.5405 3.98873 37.8066 5.09465C36.8116 6.59247 35.8828 8.86416 35.0629 11.7469C34.8084 12.6502 33.8729 13.1717 32.9737 12.9159C32.0746 12.6602 31.5556 11.7204 31.8101 10.8169C32.6332 7.92093 33.5985 5.51636 34.6629 3.74621C26.6632 4.88533 19.4965 8.63162 14.0492 14.1052L14.0528 14.109ZM56.2001 7.28735C52.7159 5.52384 48.9078 4.30166 44.8883 3.74034C46.2073 5.87914 47.3477 8.86152 48.2634 12.4984C49.2551 16.4472 50.0353 21.2267 50.5344 26.5465C55.6417 25.9022 60.7063 24.8029 65.6611 23.2386C65.6115 22.9032 65.5883 22.5611 65.5883 22.2124C65.5883 20.2297 66.3883 18.4363 67.6809 17.1377L68.0246 16.8122C64.8082 12.8634 60.782 9.60528 56.2034 7.28386L56.2001 7.28735ZM75.6934 33.5972C75.4256 32.0695 75.0653 30.5783 74.6224 29.1402C74.0208 29.3063 73.3828 29.396 72.7282 29.396C70.7548 29.396 68.9697 28.5922 67.6772 27.2936C67.3995 27.0147 67.1483 26.7157 66.9202 26.3969C61.6443 28.0774 56.2465 29.2597 50.8017 29.9306C51.0166 33.1421 51.1356 36.5164 51.1356 39.9971C51.1356 43.4743 51.0199 46.8486 50.8017 50.0602L52.3487 50.2661C57.2576 50.9636 62.1271 52.0728 66.9033 53.5906C67.1678 53.1888 67.4719 52.8168 67.8091 52.4747C69.1048 51.1762 70.8965 50.3724 72.8601 50.3724C73.4915 50.3724 74.1031 50.4554 74.6882 50.6115C75.1146 49.1934 75.4584 47.7454 75.7129 46.2675C76.06 44.2383 76.2451 42.1392 76.2451 39.9938C76.2451 37.8118 76.0537 35.6696 75.6934 33.5972ZM74.9166 54.3807L74.7579 54.2844C74.2026 53.9589 73.5546 53.7729 72.8605 53.7729C71.8158 53.7729 70.877 54.1947 70.2027 54.8722C69.5218 55.5597 69.1019 56.5063 69.1019 57.5491C69.1019 58.5919 69.5217 59.5384 70.2027 60.2192C70.8837 60.9034 71.8258 61.3252 72.8605 61.3252C73.8985 61.3252 74.8405 60.9034 75.5182 60.2192L75.5975 60.1462C76.2322 59.4753 76.6222 58.5587 76.6222 57.549C76.6222 56.4995 76.2024 55.5563 75.528 54.8788C75.3363 54.6862 75.138 54.5235 74.9165 54.3774L74.9166 54.3807ZM36.6205 30.5517C35.1429 30.4986 33.662 30.4089 32.1876 30.2827L32.1711 30.4986C31.9794 33.4943 31.8736 36.6759 31.8736 39.9938L31.8967 43.0127L31.9364 44.5006C33.3776 44.7696 34.6702 45.477 35.6685 46.48L35.6784 46.49C36.4817 47.297 37.0966 48.3 37.4469 49.4126C40.779 49.3229 44.1144 49.4225 47.4335 49.7048C47.6384 46.6095 47.7475 43.3547 47.7475 39.9937C47.7475 36.636 47.6384 33.3813 47.4335 30.2825C43.8369 30.5914 40.2267 30.6813 36.6205 30.5517ZM47.1656 53.0858C44.0054 52.8135 40.8353 52.7172 37.6682 52.7935C37.4202 54.225 36.7459 55.5136 35.7806 56.5199L35.6814 56.6295C34.9476 57.3668 34.055 57.9447 33.06 58.3067C33.8402 63.9094 34.9608 68.6053 36.3094 71.9297C37.5061 74.8888 38.7226 76.5959 39.8134 76.5959C41.5952 76.5959 43.4398 72.7998 44.9835 66.662C45.9388 62.8626 46.6892 58.2396 47.1685 53.0815L47.1656 53.0858ZM33.8406 16.9449C33.6621 17.8649 32.7729 18.466 31.8572 18.2866C30.9415 18.1073 30.3431 17.2139 30.5217 16.2939L30.6374 15.6994C30.8159 14.7795 31.7051 14.1783 32.6208 14.3577C33.5365 14.5371 34.1349 15.4304 33.9563 16.3504L33.8406 16.9449ZM72.7248 18.4361C71.6868 18.4361 70.7447 18.8579 70.0671 19.5421C69.3861 20.2262 68.9663 21.1728 68.9663 22.2123C68.9663 23.2551 69.3861 24.2016 70.0671 24.8824C70.748 25.5666 71.6902 25.9884 72.7248 25.9884C73.7628 25.9884 74.7048 25.5666 75.3825 24.8824L75.4619 24.8094C76.0965 24.1385 76.4866 23.2219 76.4866 22.2122C76.4866 21.1627 76.0668 20.2195 75.3924 19.542C74.7081 18.8546 73.7693 18.4361 72.7281 18.4361L72.7248 18.4361ZM30.6308 47.7753C29.5862 47.7753 28.6473 48.1971 27.9731 48.8746C27.2921 49.5621 26.8723 50.5086 26.8723 51.5514C26.8723 52.5943 27.2921 53.5408 27.9731 54.2216C28.654 54.9058 29.5962 55.3276 30.6308 55.3276C31.6688 55.3276 32.6108 54.9058 33.2885 54.2216L33.3678 54.1485C34.0025 53.4777 34.3926 52.561 34.3926 51.5514C34.3926 50.5019 33.9727 49.5587 33.2984 48.8812C32.6141 48.1937 31.6753 47.7753 30.634 47.7753L30.6308 47.7753Z" fill="black"/>
</svg>
