<svg width="34" height="34" viewBox="0 0 34 34" fill="#ffffff" xmlns="http://www.w3.org/2000/svg">
<path d="M27.8507 0H16.4838C14.9153 0.00221342 13.6442 1.26949 13.642 2.83336V13.7041C13.46 13.6377 13.2679 13.6023 13.0737 13.6001C12.1901 13.6421 11.4697 14.3217 11.3787 15.1982L10.242 21.4316C10.2309 21.4925 10.2286 21.5534 10.2375 21.6142L10.7903 25.4702L9.72024 29.7434L6.42327 33.0327H6.42438C6.26231 33.1943 6.21347 33.4366 6.30005 33.648C6.38664 33.8594 6.59309 33.9989 6.82177 34H19.8937C20.0447 34 20.189 33.9402 20.2956 33.834L22.4024 31.7333H27.8506C29.4191 31.7311 30.6901 30.4638 30.6923 28.8999V28.4738C30.8366 28.3875 30.9698 28.2846 31.0897 28.1673L33.3631 25.9006C34.2123 25.0528 34.2123 23.6804 33.3631 22.8326C33.1045 22.577 32.7836 22.3921 32.4329 22.2947L33.3631 21.3673C34.2123 20.5195 34.2123 19.1471 33.3631 18.2993C33.0412 17.9784 32.6249 17.7681 32.1742 17.6983C32.4395 16.9203 32.2397 16.0603 31.6581 15.477C31.5027 15.3254 31.3239 15.1992 31.1286 15.1018L32.8092 13.4262C33.3354 12.9004 33.554 12.1412 33.3898 11.4162C33.2255 10.6703 32.6838 10.0616 31.9589 9.8103C31.5504 9.66641 31.1064 9.65756 30.6923 9.78595V2.83317C30.6901 1.2693 29.4192 0.00221002 27.8507 0ZM19.6585 32.8669H8.19387L10.6337 30.4342C10.707 30.3612 10.7581 30.2704 10.7836 30.1708L11.9203 25.6375C11.9381 25.5666 11.9414 25.4925 11.9314 25.4194L11.3764 21.5445L12.4986 15.3854C12.5475 15.0699 12.7662 14.7335 13.077 14.7335C13.3878 14.7357 13.6398 14.9869 13.642 15.2968V28.9003C13.6442 30.4642 14.9152 31.7315 16.4837 31.7337H20.7952L19.6585 32.8669ZM29.5557 28.9002C29.5557 29.8388 28.792 30.6002 27.8507 30.6002H16.4838C15.5424 30.6002 14.7787 29.8388 14.7787 28.9002V2.83336C14.7787 1.89481 15.5424 1.13334 16.4838 1.13334H27.8507C28.792 1.13334 29.5557 1.89481 29.5557 2.83336V14.9273C29.1872 15.0213 28.8519 15.2117 28.5811 15.4773L28.419 15.64V2.83353C28.419 2.68301 28.3591 2.53912 28.2525 2.43287C28.1459 2.32662 28.0016 2.26685 27.8507 2.26685H16.4837C16.1696 2.26685 15.9154 2.5203 15.9154 2.83352V28.9004C15.9154 29.0509 15.9753 29.1948 16.0819 29.3011C16.1885 29.4073 16.3328 29.4671 16.4838 29.4671H27.8507C28.0016 29.4671 28.146 29.4073 28.2525 29.3011C28.3591 29.1948 28.419 29.0509 28.419 28.9004V28.4798C28.7598 28.689 29.1516 28.8008 29.5513 28.8019H29.5557L29.5557 28.9002ZM27.2823 6.80005V11.3334H26.1456C25.9292 11.3323 25.7305 11.4541 25.6339 11.6466L24.6459 13.6189C23.7834 13.6056 22.9365 13.8403 22.205 14.2941C21.4734 14.7489 20.8873 15.4031 20.5188 16.18L18.9747 19.2669H17.0521V6.80017H18.1888V5.66682H17.0521V3.40014H27.2823V5.66682H26.1456V6.80017L27.2823 6.80005ZM25.0089 15.8668C24.0465 15.8646 23.1751 16.4335 22.7922 17.3134L21.6555 19.58C21.5678 19.756 21.5767 19.9652 21.681 20.1323C21.7854 20.3006 21.9696 20.4013 22.1672 20.4002H25.9913C26.2722 20.8827 26.7384 21.2303 27.2823 21.3631V23.8002H23.8157C23.5471 22.4798 22.3815 21.5302 21.0306 21.5302C19.6796 21.5302 18.5141 22.4798 18.2454 23.8002H17.0521V20.4002H19.3255C19.542 20.4013 19.7407 20.2795 19.8373 20.0869L21.5423 16.6869C22.2194 15.3355 23.2895 14.7335 25.0089 14.7335H27.2823V15.8668L25.0089 15.8668ZM27.0514 17.0035L26.3077 17.7439C25.9025 18.1479 25.6738 18.6957 25.6727 19.2668H23.0863L23.8156 17.818C24.0077 17.3277 24.4805 17.0046 25.0089 17.0001L27.0514 17.0035ZM27.2823 27.2001V28.3335H17.0521V27.2001H27.2823ZM17.0521 26.0668V24.9334H18.2454C18.3331 25.3463 18.5129 25.7336 18.7716 26.0668H17.0521ZM19.3255 24.3668C19.3255 23.6795 19.7406 23.0597 20.3778 22.7962C21.015 22.5328 21.7487 22.6789 22.236 23.1648C22.7233 23.6507 22.8699 24.3823 22.6057 25.0176C22.3415 25.6529 21.7199 26.0668 21.0305 26.0668C20.0892 26.0668 19.3255 25.3053 19.3255 24.3668ZM23.2894 26.0668C23.5469 25.7336 23.7268 25.3463 23.8145 24.9334H27.2822V26.0668H23.2894ZM25.9291 13.6L26.4975 12.4667H27.2823V13.6H25.9291ZM32.5594 23.6341C32.9646 24.0392 32.9646 24.6944 32.5594 25.0995L30.2861 27.3661C29.8765 27.7513 29.2348 27.7413 28.8374 27.3451C28.44 26.9478 28.4312 26.308 28.8163 25.9007L31.0897 23.6341C31.496 23.2301 32.1532 23.2301 32.5594 23.6341ZM28.419 24.6944V23.9462C28.5833 24.0436 28.7587 24.12 28.943 24.172L28.419 24.6944ZM31.8246 18.8007C32.2453 18.8007 32.6238 19.053 32.7848 19.4393C32.9457 19.8267 32.8569 20.2727 32.5594 20.5693L30.286 22.836C29.8798 23.24 29.2204 23.2389 28.8152 22.8338C28.4089 22.4287 28.41 21.7713 28.8163 21.3673L31.153 19.0486H31.1541C31.3406 18.8881 31.5781 18.7996 31.8246 18.7985L31.8246 18.8007ZM30.8544 17.747L28.5177 20.0657C28.097 20.4531 27.441 20.4265 27.0525 20.0071C26.6639 19.5865 26.6906 18.9335 27.1113 18.5461L29.3847 16.2795C29.791 15.8744 30.4492 15.8744 30.8544 16.2784C31.2607 16.6834 31.2607 17.3398 30.8544 17.7437L30.8544 17.747ZM31.5659 10.8739C31.9267 10.9923 32.1975 11.2911 32.2797 11.6597C32.3585 12.0072 32.2553 12.3702 32.0044 12.6237L30.6923 13.9341V11.0254C30.9409 10.8361 31.2673 10.7798 31.5659 10.8739Z" fill="white"></path>
<path d="M6.25354 12.4668C7.00725 12.4679 7.75545 12.3317 8.46031 12.0661L11.7817 13.0124C11.8317 13.0257 11.885 13.0334 11.9371 13.0334C12.1192 13.0334 12.2912 12.946 12.3978 12.7977C12.5044 12.6505 12.5332 12.4601 12.4755 12.2874L11.5553 9.53265C12.541 7.95881 12.7719 6.02977 12.1847 4.26884C11.5986 2.50907 10.2565 1.10002 8.52252 0.426247C6.78972 -0.24778 4.84504 -0.117191 3.21759 0.782626C1.59135 1.68355 0.451335 3.2596 0.107316 5.08253C-0.235681 6.90539 0.252732 8.78686 1.44048 10.2146C2.62935 11.6412 4.39306 12.4679 6.25354 12.4668ZM6.25354 1.13334C7.50345 1.13334 8.71007 1.58934 9.64486 2.41498C10.5806 3.24176 11.1789 4.38062 11.3299 5.61809C11.4798 6.85437 11.1701 8.10391 10.4596 9.1289C10.3586 9.2761 10.332 9.46094 10.3875 9.63026L11.0546 11.6269L8.58367 10.923C8.46045 10.8876 8.32947 10.8953 8.21069 10.944C6.79537 11.5295 5.19136 11.452 3.8404 10.7315C2.48947 10.0121 1.5326 8.72603 1.234 7.22863C0.934278 5.73004 1.32502 4.17711 2.29743 2.99617C3.26984 1.81633 4.72162 1.13224 6.25354 1.13334Z" fill="white"></path>
<path d="M18.1888 4.53337H19.3255V5.66671L18.1888 5.66682L18.1888 4.53337Z" fill="white"></path>
<path d="M19.3255 5.66671L20.4622 5.66671V6.80005H19.3255L19.3255 5.66671Z" fill="white"></path>
<path d="M20.4622 4.53337H21.5989V5.66671L20.4622 5.66671L20.4622 4.53337Z" fill="white"></path>
<path d="M21.5989 5.66671L22.7356 5.66671V6.80005H21.5989V5.66671Z" fill="white"></path>
<path d="M22.7356 4.53337H23.8723V5.66671L22.7356 5.66671L22.7356 4.53337Z" fill="white"></path>
<path d="M23.8723 5.66671L25.0089 5.66671V6.80005H23.8722L23.8723 5.66671Z" fill="white"></path>
<path d="M25.0089 4.53337H26.1456L26.1456 5.66682L25.0089 5.66671L25.0089 4.53337Z" fill="white"></path>
<path d="M18.1888 6.80017L19.3255 6.80005L19.3255 7.9334H18.1888L18.1888 6.80017Z" fill="white"></path>
<path d="M20.4622 6.80005H21.5989V7.9334H20.4622L20.4622 6.80005Z" fill="white"></path>
<path d="M22.7356 6.80005H23.8722L23.8723 7.9334H22.7356L22.7356 6.80005Z" fill="white"></path>
<path d="M5.76618 9.92553C5.86942 10.096 6.05368 10.2 6.25348 10.2C6.45329 10.2 6.63757 10.096 6.74078 9.92553L8.43138 7.1143C8.85764 6.52882 9.08964 5.82379 9.09518 5.09996C9.09518 3.53498 7.82305 2.2666 6.25346 2.2666C4.68386 2.2666 3.41173 3.53498 3.41173 5.09996C3.41506 5.81492 3.64262 6.51111 4.06112 7.09214L5.76618 9.92553ZM6.25348 3.40003C7.19481 3.40003 7.95852 4.16149 7.95852 5.10004C7.94853 5.60917 7.77869 6.10169 7.47122 6.50788L6.25348 8.53217L5.02134 6.48572C4.72162 6.08506 4.55623 5.6003 4.54845 5.10004C4.54845 4.16149 5.31216 3.40003 6.25348 3.40003Z" fill="white"></path>
<path d="M5.68519 4.53337H6.82189V5.66671H5.68519V4.53337Z" fill="white"></path>
<path d="M20.4622 23.8002H21.5989V24.9335H20.4622V23.8002Z" fill="white"></path>
<path d="M25.0089 6.80005L26.1456 6.80017L26.1456 7.9334H25.0089L25.0089 6.80005Z" fill="white"></path>
<path d="M19.8938 9.63341H24.4406V10.7668H19.8938V9.63341Z" fill="white"></path>
<path d="M18.1888 11.9001H22.7356V13.0334H18.1888V11.9001Z" fill="white"></path>
</svg>