<svg width="36" height="32" viewBox="0 0 36 32" fill="none" xmlns="http://www.w3.org/2000/svg">
<path d="M9.75593 14.6401L10.8698 16.4653L12.9523 16.9654C13.2618 17.0401 13.4507 17.3494 13.3787 17.6647C13.3586 17.7571 13.3126 17.8389 13.2547 17.9065L11.8703 19.5421L12.0369 21.6861C12.064 22.0049 11.8243 22.2835 11.5065 22.3107C11.3978 22.3178 11.2939 22.2953 11.2041 22.2526L9.2563 21.4455L7.27894 22.2692C6.98127 22.3889 6.64344 22.2467 6.52414 21.9504C6.48516 21.865 6.47453 21.7714 6.48162 21.6861L6.64817 19.542L5.25905 17.9065C5.04998 17.6647 5.08069 17.2961 5.32047 17.0875C5.40198 17.0176 5.49884 16.9749 5.59924 16.9595L7.64627 16.4664L8.76487 14.6341C8.93142 14.3627 9.28816 14.2726 9.55865 14.4397C9.64369 14.4942 9.70984 14.5642 9.75709 14.6412L9.75593 14.6401ZM29.0781 13.3351V6.07565C29.0781 5.75446 29.3415 5.49252 29.6592 5.49252H35.4188C35.7389 5.49252 36 5.75327 36 6.07565V27.0076C36 27.3288 35.7401 27.5907 35.4188 27.5907H29.6592C29.3415 27.5907 29.0781 27.33 29.0781 27.0076V23.325H28.1449V27.0076C28.1449 27.3288 27.885 27.5907 27.5637 27.5907H21.8041C21.484 27.5907 21.223 27.33 21.223 27.0076V23.325H20.2898V27.0076C20.2898 27.3288 20.0264 27.5907 19.7051 27.5907H13.9491C13.629 27.5907 13.368 27.33 13.368 27.0076V24.0019C12.2139 24.8458 10.7941 25.3412 9.25393 25.3412C8.82043 25.3412 8.39521 25.3021 7.98414 25.2286L4.60463 30.805C4.25261 31.3917 3.68681 31.7805 3.07142 31.9274C2.45128 32.0791 1.77444 31.9974 1.1933 31.6406L1.15905 31.6205C0.593247 31.2625 0.218797 30.7067 0.0723194 30.0975C-0.0788756 29.48 0.00262745 28.8009 0.358172 28.213L3.73768 22.6366C2.81633 21.449 2.26707 19.9532 2.26707 18.3296C2.26707 16.3918 3.04902 14.6352 4.31174 13.3706C5.57682 12.1012 7.32621 11.3166 9.254 11.3166C10.7943 11.3166 12.2141 11.8144 13.368 12.6607V9.81025C13.368 9.48906 13.6279 9.22712 13.9492 9.22712H19.7052C20.0253 9.22712 20.2899 9.48787 20.2899 9.81025V13.3326H21.223V0.583131C21.223 0.261937 21.4829 0 21.8042 0H27.5638C27.8839 0 28.145 0.260748 28.145 0.583131V13.3326L29.0781 13.3351ZM30.2392 23.227V26.4271H34.8376V6.66033H30.2392V13.4422C30.6691 13.5667 31.0554 13.8002 31.3661 14.1095L31.3708 14.1142C31.8421 14.5872 32.1374 15.245 32.1374 15.9632V20.7089C32.1374 21.4283 31.8421 22.0837 31.3672 22.5578V22.5626C31.0578 22.8731 30.6703 23.1054 30.2404 23.2298L30.2392 23.227ZM26.9836 13.3351V1.16763H22.3852V13.3351H26.9836ZM22.3852 23.3278V26.4271H26.9836V23.3278H22.3852ZM19.1251 13.3351V10.3946H14.5303V13.3351H19.1251ZM14.5303 23.3278V26.4271H19.1251V23.3278H14.5303ZM4.02467 24.4039L6.2926 25.7859L6.82296 24.9077C5.97956 24.5936 5.20826 24.1183 4.55503 23.521L4.02467 24.4028V24.4039ZM5.69254 26.7767L3.42461 25.3948L1.3504 28.8237C1.1614 29.1342 1.1177 29.4957 1.19566 29.8299C1.27716 30.1511 1.47442 30.4426 1.76853 30.6335L1.7957 30.6536C2.10874 30.8397 2.469 30.8871 2.79855 30.8053C3.12809 30.7235 3.4293 30.5185 3.61948 30.2032L5.69369 26.778L5.69254 26.7767ZM15.1093 22.1627H29.5154C29.917 22.1627 30.2821 21.9992 30.5407 21.7348C30.8089 21.4705 30.9707 21.1055 30.9707 20.7061V15.9604C30.9707 15.5574 30.8077 15.1959 30.5443 14.9316C30.2808 14.6673 29.917 14.5002 29.5143 14.5002H15.1081C15.8251 15.6036 16.242 16.9204 16.242 18.3345C16.242 19.7484 15.8251 21.0604 15.1081 22.1638L15.1093 22.1627ZM27.4755 15.8717L28.1405 16.9597L29.3832 17.2584C29.6926 17.3331 29.8816 17.6424 29.8096 17.9577C29.7895 18.0501 29.7434 18.1319 29.6856 18.1995L28.8575 19.1749L28.9591 20.4573C28.9863 20.7761 28.7465 21.0594 28.4288 21.0819C28.3201 21.089 28.2161 21.0701 28.1264 21.0238L26.9806 20.5462L25.797 21.0393C25.5017 21.1637 25.1615 21.0191 25.0422 20.7252C25.0032 20.6351 24.9926 20.5462 24.9997 20.4561L25.0965 19.1737L24.2685 18.1983C24.0594 17.9565 24.0901 17.5879 24.3299 17.3793C24.4114 17.3094 24.5083 17.2667 24.6087 17.2513L25.8171 16.9597L26.4868 15.8646C26.6534 15.5885 27.0101 15.5031 27.2806 15.6702C27.3656 15.72 27.4318 15.7899 27.479 15.8717L27.4755 15.8717ZM27.2771 17.7669L26.9747 17.2774L26.677 17.7669C26.6002 17.8949 26.4715 17.9909 26.3167 18.0312L25.7592 18.1627L26.1112 18.5788C26.2199 18.6961 26.2825 18.8549 26.2695 19.0244L26.2222 19.5992L26.7526 19.3776C26.8884 19.3231 27.0479 19.316 27.1944 19.3776L27.7247 19.5992L27.6822 19.0244C27.6704 18.8774 27.7129 18.7257 27.818 18.6013L28.1925 18.1628L27.6621 18.0348C27.5074 18.0075 27.3645 17.9151 27.2747 17.7657L27.2771 17.7669ZM20.6822 15.8717L21.3473 16.9597L22.5899 17.2584C22.8994 17.3331 23.0884 17.6424 23.0163 17.9577C22.9962 18.0501 22.9502 18.1319 22.897 18.1995L22.0655 19.1749L22.167 20.4573C22.1942 20.7761 21.9544 21.0594 21.6367 21.0819C21.528 21.089 21.4241 21.0701 21.3343 21.0238L20.1885 20.5462L19.0049 21.0393C18.7096 21.1637 18.3694 21.0191 18.2454 20.7252C18.2111 20.6351 18.1982 20.5462 18.2064 20.4561L18.3033 19.1737L17.4752 18.1983C17.2662 17.9565 17.2969 17.5879 17.5367 17.3793C17.6182 17.3094 17.715 17.2667 17.8154 17.2513L19.0238 16.9597L19.6935 15.8646C19.8601 15.5885 20.2168 15.5031 20.4873 15.6702C20.5724 15.72 20.6385 15.7899 20.6858 15.8717L20.6822 15.8717ZM20.4838 17.7669L20.1814 17.2774L19.8837 17.7669C19.807 17.8949 19.6782 17.9909 19.5235 18.0312L18.9659 18.1627L19.3179 18.5788C19.4302 18.6961 19.4916 18.8549 19.4762 19.0244L19.429 19.5992L19.9593 19.3776C20.0952 19.3231 20.2546 19.316 20.4011 19.3776L20.9315 19.5992L20.8889 19.0244C20.8771 18.8774 20.9232 18.7257 21.0283 18.6013L21.4004 18.1628L20.8748 18.0348C20.7165 18.0075 20.5724 17.9151 20.4826 17.7657L20.4838 17.7669ZM13.3728 14.1969C12.3203 13.1409 10.8615 12.4843 9.25152 12.4843C7.64625 12.4843 6.18498 13.1409 5.13266 14.1969C4.07547 15.253 3.42582 16.7167 3.42582 18.3322C3.42582 19.9429 4.07547 21.4091 5.13266 22.465C6.18513 23.5257 7.64392 24.1776 9.25152 24.1776C10.8615 24.1776 12.3202 23.5257 13.3728 22.465C14.4253 21.4089 15.0796 19.9452 15.0796 18.3322C15.0796 16.7167 14.4252 15.2531 13.3728 14.1969ZM10.0017 17.276L9.25049 16.0445L8.50395 17.276C8.42244 17.4004 8.29842 17.4976 8.14014 17.5367L6.7463 17.871L7.65937 18.9471C7.76804 19.0597 7.83065 19.2233 7.81765 19.3928L7.70544 20.8293L9.03311 20.2746C9.16895 20.2201 9.32369 20.2165 9.47016 20.2746L10.7978 20.8293L10.6856 19.3928C10.6738 19.2411 10.7199 19.0894 10.825 18.9697L11.7581 17.871L10.3915 17.5451C10.2332 17.5142 10.0891 17.4206 9.99933 17.276L10.0017 17.276Z" fill="white"></path>
</svg>