<svg width="34" height="34" viewBox="0 0 34 34" fill="#ffffff" xmlns="http://www.w3.org/2000/svg">
<path d="M33.9862 7.99499C33.9862 7.99499 33.9677 7.93851 33.9616 7.90658C33.9555 7.86238 33.9493 7.82431 33.9297 7.78747C33.9174 7.74941 33.8916 7.72484 33.8732 7.69292C33.8486 7.65485 33.8229 7.62416 33.7909 7.59223C33.7664 7.56767 33.7406 7.54802 33.7087 7.5296C33.6706 7.50504 33.6338 7.47926 33.5896 7.46084C33.5576 7.44856 33.5208 7.44242 33.4827 7.43628C33.4508 7.43014 33.4201 7.41172 33.3882 7.41172H33.3121L31.3942 7.52469L31.7908 0.665542V0.589409C31.7908 0.557484 31.7724 0.532923 31.7662 0.500998C31.7601 0.456794 31.7539 0.418726 31.7343 0.381887C31.722 0.343822 31.6962 0.319262 31.6778 0.287336C31.6533 0.249271 31.6275 0.212432 31.5956 0.180507L31.5207 0.124021C31.4826 0.0920954 31.4384 0.0675353 31.3954 0.0491174C31.3635 0.0368382 31.3328 0.0306986 31.3009 0.0245587C31.2628 0.0184191 31.2321 0 31.1941 0H31.1179L20.4064 0.622573C20.1608 0.634853 19.941 0.792028 19.8526 1.02532C19.7642 1.2574 19.8207 1.51527 19.9975 1.69209L21.5446 3.2393L17.7101 7.07407L17.8292 5.0185V4.94237C17.8292 4.91044 17.8108 4.88588 17.8047 4.85395C17.7985 4.80975 17.7924 4.77168 17.7728 4.73484C17.7543 4.69678 17.7347 4.66608 17.7101 4.63415C17.6856 4.60223 17.6659 4.56539 17.6352 4.5396C17.6107 4.51504 17.5788 4.49539 17.5468 4.47084C17.5088 4.44628 17.4781 4.42049 17.4339 4.40821C17.3958 4.39593 17.3651 4.38979 17.3271 4.37629C17.2951 4.37015 17.2644 4.35173 17.2325 4.35173H17.1564L6.44485 4.9743C6.19928 4.98658 5.97949 5.14376 5.8911 5.37705C5.8027 5.60913 5.85918 5.867 6.03598 6.04382L7.58306 7.59103L0.184174 14.9906C-0.0613915 15.2361 -0.0613915 15.6315 0.184174 15.8771C0.309414 16.0024 0.466576 16.0588 0.631112 16.0588C0.794413 16.0588 0.951566 15.9962 1.07805 15.8771L8.9239 8.03059C9.16947 7.785 9.16947 7.38959 8.9239 7.14402L7.92445 6.14448L16.5303 5.64101L16.0269 14.2476L15.0275 13.2481C14.7819 13.0025 14.3865 13.0025 14.141 13.2481L0.210106 27.2245C-0.0354599 27.4701 -0.0354599 27.8655 0.210106 28.1111C0.335346 28.2363 0.492508 28.2928 0.657044 28.2928C0.820345 28.2928 0.977498 28.2302 1.10398 28.1111L14.6262 14.5876L16.1733 16.1349C16.2924 16.254 16.4557 16.3166 16.6202 16.3166C16.6951 16.3166 16.7713 16.3043 16.8462 16.2724C17.0782 16.184 17.2354 15.9703 17.2489 15.7186L17.6454 8.94777L22.9201 3.67263C23.0454 3.54738 23.1018 3.39021 23.1018 3.22566C23.1018 3.06234 23.0392 2.90518 22.9201 2.77868L21.9207 1.77914L30.5266 1.27567L30.1619 7.57496L22.6304 8.01455C22.3848 8.02683 22.165 8.18401 22.0766 8.4173C21.9882 8.64938 22.0447 8.90725 22.2215 9.08407L23.7686 10.6313L1.4773 32.9317C1.23174 33.1773 1.23174 33.5727 1.4773 33.8183C1.60254 33.9435 1.7597 34 1.92424 34C2.08754 34 2.24469 33.9374 2.37118 33.8183L25.0909 11.0966C25.3364 10.851 25.3364 10.4556 25.0909 10.21L24.0914 9.2105L32.6973 8.70704L32.1939 17.3137L31.1944 16.3141C30.9489 16.0685 30.5535 16.0685 30.3079 16.3141L15.9238 30.6995C15.6782 30.9451 15.6782 31.3405 15.9238 31.5861C16.0491 31.7113 16.2062 31.7678 16.3708 31.7678C16.5341 31.7678 16.6912 31.7052 16.8177 31.5861L30.7548 17.6477L32.3019 19.1949C32.421 19.314 32.5843 19.3766 32.7488 19.3766C32.8237 19.3766 32.8999 19.3644 32.9748 19.3324C33.2068 19.244 33.364 19.0304 33.3775 18.7786L34 8.06617V7.99004L33.9862 7.99499Z" fill="white"></path>
</svg>