<svg width="80" height="86" viewBox="0 0 80 86" fill="none" xmlns="http://www.w3.org/2000/svg">
<path d="M60.0004 42.9847C60.0004 43.7988 60.3234 44.5823 60.9004 45.1583C61.4773 45.7344 62.2619 46.057 63.0773 46.057C69.0236 46.057 73.8472 50.8728 73.8472 56.8106C73.8472 62.7485 69.0241 67.5643 63.0773 67.5643H36.6153C35.5883 62.5449 32.1268 58.3703 27.3805 56.4233C22.6343 54.48 17.2339 55.0253 12.9724 57.8788C8.71081 60.7322 6.15687 65.5136 6.15687 70.6371C6.15687 75.7607 8.71081 80.5414 12.9724 83.3955C17.234 86.2489 22.6341 86.7942 27.3805 84.851C32.1268 82.9039 35.5883 78.7293 36.6153 73.71H63.0773C69.1235 73.71 74.7117 70.4879 77.7355 65.261C80.7548 60.0342 80.7548 53.59 77.7355 48.3626C74.7124 43.1358 69.1238 39.9137 63.0773 39.9137C61.3772 39.9137 60.0003 41.2885 60.0003 42.986L60.0004 42.9847ZM21.5386 79.8527C17.8039 79.8527 14.4386 77.606 13.0115 74.1612C11.5808 70.7202 12.3731 66.753 15.0115 64.1183C17.65 61.4838 21.6231 60.6926 25.0695 62.1213C28.5196 63.5461 30.7697 66.9065 30.7697 70.6356C30.7697 75.7242 26.6349 79.8527 21.5386 79.8527Z" fill="black"/>
<path d="M16.9227 46.057H43.3384L42.4307 46.9633C41.2268 48.1654 41.2268 50.1086 42.4307 51.3107C43.6346 52.5128 45.5807 52.5128 46.7846 51.3107L52.9386 45.1661C53.0809 45.0201 53.2117 44.8627 53.3232 44.6898C53.3232 44.6898 53.4001 44.5362 53.4463 44.4594C53.5655 44.2751 53.6463 44.0715 53.6925 43.8603C53.6925 43.7681 53.6925 43.6913 53.7694 43.5992C53.8463 43.2036 53.8463 42.7965 53.7694 42.4009C53.7694 42.3087 53.7694 42.2319 53.6925 42.1397C53.6463 41.9285 53.5655 41.725 53.4463 41.5406C53.4463 41.4638 53.3694 41.387 53.3232 41.3102C53.2117 41.1374 53.0809 40.9799 52.9386 40.834L46.7846 34.6893C45.5807 33.4872 43.6346 33.4872 42.4307 34.6893C41.2268 35.8914 41.2268 37.8346 42.4307 39.0367L43.3384 39.943H16.9227C10.9764 39.943 6.15277 35.1272 6.15277 29.1894C6.15277 23.2515 10.9759 18.4357 16.9227 18.4357H43.3847C44.4117 23.4552 47.8732 27.6297 52.6195 29.5767C57.3657 31.52 62.7661 30.9747 67.0276 28.1212C71.2892 25.2678 73.8431 20.4864 73.8431 15.3629C73.8431 10.2393 71.2892 5.45862 67.0276 2.60454C62.766 -0.248849 57.3659 -0.794202 52.6195 1.14899C47.8732 3.09612 44.4117 7.27066 43.3847 12.29H16.9227C10.8764 12.29 5.28827 15.5121 2.26446 20.739C-0.754819 25.9658 -0.754819 32.41 2.26446 37.6374C5.28758 42.8642 10.8762 46.0863 16.9227 46.0863V46.057ZM58.4624 6.1166C62.1971 6.1166 65.5625 8.36329 66.9895 11.8081C68.4203 15.2492 67.628 19.2164 64.9895 21.851C62.351 24.4855 58.3779 25.2767 54.9315 23.848C51.4814 22.4232 49.2313 19.0628 49.2313 15.3337C49.2313 10.2451 53.3661 6.1166 58.4624 6.1166Z" fill="black"/>
<path d="M22.4465 66.9332L19.908 69.4678C18.5618 68.7612 16.9041 69.1414 16.0002 70.3588C15.0963 71.5801 15.2194 73.2776 16.2925 74.3529L17.831 75.889C18.4079 76.4651 19.1925 76.7915 20.0079 76.7915C20.8233 76.7915 21.6079 76.4651 22.1848 75.889L26.8003 71.2805C28.0042 70.0784 28.0042 68.1352 26.8003 66.9331C25.5964 65.731 23.6504 65.7311 22.4465 66.9332Z" fill="black"/>
</svg>
