<svg width="61" height="81" viewBox="0 0 61 81" fill="none" xmlns="http://www.w3.org/2000/svg">
<path d="M13.4968 51.2096L11.1186 48.894L9.5468 50.5971L13.6812 54.6158L20.8999 45.8406L19.1593 44.3282L13.4968 51.2096Z" fill="black"/>
<path d="M13.4968 64.5936L11.1186 62.2811L9.5468 63.9811L13.6812 67.9998L20.8999 59.2278L19.1593 57.7122L13.4968 64.5936Z" fill="black"/>
<path d="M51.3312 12.2904H35.5064V17.4622H51.3312V12.2904ZM49.5812 15.7122H37.2596V14.0404H49.5812V15.7122Z" fill="black"/>
<path d="M51.3312 32.4376V27.2658L35.5064 27.2689V32.4407L51.3312 32.4376ZM37.256 29.0189H49.5776V30.6907H37.256V29.0189Z" fill="black"/>
<path d="M51.3312 19.7784H35.5064V24.9502H51.3312V19.7784ZM49.5812 23.2002H37.2596V21.5284H49.5812V23.2002Z" fill="black"/>
<path d="M25.3472 46.3936H51.4536V48.1436H25.3472V46.3936Z" fill="black"/>
<path d="M25.3472 50.7816H51.4536V52.5316H25.3472V50.7816Z" fill="black"/>
<path d="M25.3472 59.7816H51.4536V61.5316H25.3472V59.7816Z" fill="black"/>
<path d="M25.3472 64.1656H51.4536V65.9156H25.3472V64.1656Z" fill="black"/>
<path d="M0.5 0.5V80.5H60.5V0.5H0.5ZM58.7496 78.7496H2.2496V2.2496H9.66832V35.2312L19.0027 29.825L28.3371 35.2374V2.25024H58.7499L58.7496 78.7496ZM26.5872 2.2592V32.2032L19.0028 27.8032L11.4184 32.197V2.24976L26.5872 2.2592Z" fill="black"/>
<path d="M13.4968 51.2096L11.1186 48.894L9.5468 50.5971L13.6812 54.6158L20.8999 45.8406L19.1593 44.3282L13.4968 51.2096Z" stroke="black" stroke-linejoin="round"/>
<path d="M13.4968 64.5936L11.1186 62.2811L9.5468 63.9811L13.6812 67.9998L20.8999 59.2278L19.1593 57.7122L13.4968 64.5936Z" stroke="black" stroke-linejoin="round"/>
<path d="M51.3312 12.2904H35.5064V17.4622H51.3312V12.2904ZM49.5812 15.7122H37.2596V14.0404H49.5812V15.7122Z" stroke="black" stroke-linejoin="round"/>
<path d="M51.3312 32.4376V27.2658L35.5064 27.2689V32.4407L51.3312 32.4376ZM37.256 29.0189H49.5776V30.6907H37.256V29.0189Z" stroke="black" stroke-linejoin="round"/>
<path d="M51.3312 19.7784H35.5064V24.9502H51.3312V19.7784ZM49.5812 23.2002H37.2596V21.5284H49.5812V23.2002Z" stroke="black" stroke-linejoin="round"/>
<path d="M25.3472 46.3936H51.4536V48.1436H25.3472V46.3936Z" stroke="black" stroke-linejoin="round"/>
<path d="M25.3472 50.7816H51.4536V52.5316H25.3472V50.7816Z" stroke="black" stroke-linejoin="round"/>
<path d="M25.3472 59.7816H51.4536V61.5316H25.3472V59.7816Z" stroke="black" stroke-linejoin="round"/>
<path d="M25.3472 64.1656H51.4536V65.9156H25.3472V64.1656Z" stroke="black" stroke-linejoin="round"/>
<path d="M0.5 0.5V80.5H60.5V0.5H0.5ZM58.7496 78.7496H2.2496V2.2496H9.66832V35.2312L19.0027 29.825L28.3371 35.2374V2.25024H58.7499L58.7496 78.7496ZM26.5872 2.2592V32.2032L19.0028 27.8032L11.4184 32.197V2.24976L26.5872 2.2592Z" stroke="black" stroke-linejoin="round"/>
</svg>
