<svg width="80" height="75" viewBox="0 0 80 75" fill="none" xmlns="http://www.w3.org/2000/svg">
<path d="M67.4962 4.9995C61.3246 4.9995 56.0759 9.5015 55.1385 15.605C54.201 21.7036 57.8581 27.5727 63.7464 29.4237V57.5C63.7464 63.0225 59.2691 67.5 53.7469 67.5C48.2247 67.5 43.7474 63.0225 43.7474 57.5V49.4239C48.9572 47.7881 52.497 42.959 52.497 37.5C52.497 32.041 48.9572 27.2119 43.7474 25.5761V17.5C43.7474 7.83688 35.911 0 26.2484 0C16.5857 0 8.74927 7.83688 8.74927 17.5V45.5762C2.86095 47.4269 -0.791232 53.296 0.146219 59.395C1.07878 65.4985 6.32752 70.0005 12.4991 70.0005C18.6706 70.0005 23.9194 65.4985 24.8519 59.395C25.7894 53.2964 22.1372 47.4272 16.2489 45.5762V17.5C16.2489 11.9775 20.7261 7.5 26.2484 7.5C31.7706 7.5 36.2478 11.9775 36.2478 17.5V25.5761C31.0381 27.2119 27.4983 32.041 27.4983 37.5C27.4983 42.959 31.0381 47.7881 36.2478 49.4239V57.5C36.2478 67.1631 44.0843 75 53.7469 75C63.4095 75 71.246 67.1631 71.246 57.5V29.4237C77.1343 27.5731 80.7914 21.704 79.8539 15.605C78.9165 9.5015 73.6677 4.9995 67.4962 4.9995ZM17.4988 57.4995C17.4988 59.521 16.283 61.3471 14.413 62.1186C12.5429 62.895 10.3947 62.4653 8.96401 61.0346C7.53333 59.604 7.10373 57.4555 7.88008 55.5854C8.65152 53.7153 10.4776 52.4994 12.499 52.4994C13.827 52.4994 15.0964 53.0267 16.0339 53.9643C16.9714 54.9018 17.4988 56.1714 17.4988 57.4995ZM39.9976 42.4995C37.9762 42.4995 36.1502 41.2837 35.3787 39.4135C34.6024 37.5434 35.0321 35.395 36.4627 33.9642C37.8933 32.5335 40.0416 32.1039 41.9116 32.8803C43.7817 33.6518 44.9975 35.4779 44.9975 37.4994C44.9975 38.8275 44.4702 40.097 43.5327 41.0345C42.5952 41.972 41.3257 42.4995 39.9976 42.4995ZM67.4962 22.4995C65.4748 22.4995 63.6488 21.2837 62.8773 19.4135C62.101 17.5434 62.5307 15.395 63.9612 13.9643C65.3918 12.5335 67.5402 12.1039 69.4102 12.8803C71.2802 13.6517 72.4961 15.4779 72.4961 17.4994C72.4961 18.8275 71.9687 20.097 71.0313 21.0345C70.0938 21.972 68.8243 22.4995 67.4962 22.4995Z" fill="black"/>
</svg>
