<svg width="32" height="34" viewBox="0 0 32 34" fill="none" xmlns="http://www.w3.org/2000/svg">
<path d="M26.3783 20.9812L21.904 20.016C20.8758 19.7929 19.8554 20.0913 19.1088 20.8294L17.9385 21.984C14.6538 20.1263 11.967 17.4278 10.1162 14.1277L11.2632 12.9523C11.9995 12.1999 12.2953 11.175 12.0731 10.145L11.1121 5.6512C10.806 4.2151 9.57243 3.21359 8.11024 3.21359H4.90557C3.41239 3.21359 2.11425 3.82072 1.15444 4.97015C0.193443 6.11695 -0.178562 7.50636 0.079758 8.98534C0.893507 13.6335 2.84526 17.9885 5.76201 21.6872H3.21869C2.04583 21.6872 1.09257 22.6459 1.09257 23.8225V29.5996C1.09257 30.7775 2.04712 31.7349 3.21869 31.7349H4.44062V33.1762C4.44062 33.4966 4.62404 33.7859 4.91338 33.9222C5.02446 33.9741 5.14201 34 5.25956 34C5.44814 34 5.63543 33.9351 5.78526 33.808L8.24591 31.7375H13.3829C14.5557 31.7375 15.509 30.7788 15.509 29.6021V29.5944C17.8961 30.7736 20.4317 31.6039 23.0589 32.067C23.3637 32.1215 23.6634 32.1487 23.9605 32.1487C25.0933 32.1487 26.1512 31.7557 27.0567 30.9902C28.2011 30.0251 28.8056 28.7226 28.8056 27.2228V24.0068C28.8056 22.5382 27.8072 21.298 26.3786 20.9919L26.3783 20.9812ZM13.3826 30.0856H7.94838C7.75721 30.0856 7.56992 30.1531 7.42267 30.2776L6.07803 31.4089V30.9068C6.07803 30.4515 5.71119 30.0843 5.25909 30.0843H3.21822C2.94826 30.0843 2.72867 29.8638 2.72867 29.5926V23.8156C2.72867 23.5445 2.94825 23.3239 3.21822 23.3239H13.3811C13.6459 23.3239 13.8706 23.5483 13.8706 23.8156V29.5926C13.8706 29.8586 13.6472 30.0843 13.3811 30.0843L13.3826 30.0856ZM27.1663 27.2134C27.1663 28.2266 26.7749 29.0699 26.0025 29.7211C25.2301 30.3724 24.3362 30.615 23.3416 30.4385C20.6007 29.956 17.9682 29.0491 15.51 27.7402V23.8183C15.51 22.6403 14.5555 21.6829 13.3839 21.6829H7.89312C4.67552 17.9922 2.53526 13.5101 1.69304 8.69681C1.51995 7.69919 1.76021 6.79887 2.40864 6.02307C3.05835 5.24729 3.89795 4.85421 4.90547 4.85421H8.11014C8.8025 4.85421 9.36696 5.31086 9.51033 5.99195L10.4727 10.487C10.5786 10.9813 10.4481 11.4354 10.0942 11.7973L8.52222 13.4086C8.27293 13.6641 8.2161 14.0507 8.38143 14.3686C10.483 18.3784 13.7033 21.6138 17.6971 23.7247C18.011 23.8908 18.3985 23.8337 18.6529 23.5833L20.2572 22.0019C20.6176 21.6465 21.0671 21.5154 21.5618 21.6231L26.0375 22.5896C26.7156 22.7362 27.1703 23.3005 27.1703 23.9959V27.2119L27.1663 27.2134Z" fill="white"></path>
<path d="M11.8817 27.0654H4.71937C4.26857 27.0654 3.90043 27.4339 3.90043 27.8879C3.90043 28.3433 4.26728 28.7104 4.71937 28.7104H11.8817C12.3325 28.7104 12.7007 28.342 12.7007 27.8879C12.7007 27.4326 12.3338 27.0654 11.8817 27.0654Z" fill="white"></path>
<path d="M4.72202 26.3481H5.98012C6.43093 26.3481 6.79906 25.9796 6.79906 25.5256C6.79906 25.0702 6.43222 24.7031 5.98012 24.7031H4.72202C4.27121 24.7031 3.90308 25.0715 3.90308 25.5256C3.90308 25.9809 4.26992 26.3481 4.72202 26.3481Z" fill="white"></path>
<path d="M11.8817 24.7045H8.27409C7.82328 24.7045 7.45515 25.0729 7.45515 25.527C7.45515 25.9823 7.82199 26.3495 8.27409 26.3495H11.8817C12.3325 26.3495 12.7007 25.981 12.7007 25.527C12.7007 25.0716 12.3338 24.7045 11.8817 24.7045Z" fill="white"></path>
<path d="M23.3752 4.87792C21.2968 4.87792 19.6062 6.57609 19.6062 8.66595C19.6062 10.7533 21.297 12.4513 23.3752 12.4513C25.4533 12.4513 27.1468 10.7532 27.1468 8.66595C27.1468 6.57858 25.456 4.87792 23.3752 4.87792ZM23.3752 10.8041C22.1997 10.8041 21.2439 9.84408 21.2439 8.66353C21.2439 7.48298 22.1997 6.52169 23.3752 6.52169C24.5506 6.52169 25.5077 7.48298 25.5077 8.66353C25.5077 9.84408 24.5506 10.8041 23.3752 10.8041Z" fill="white"></path>
<path d="M31.5272 6.91076L30.2523 6.31921L29.8906 5.44095L30.3763 4.1164C30.4874 3.81542 30.4125 3.47682 30.1864 3.25109L28.7656 1.82405C28.5408 1.59832 28.2037 1.52307 27.904 1.63334L26.5852 2.11982L25.7107 1.75656L25.1217 0.476111C24.9874 0.185516 24.6968 0 24.3777 0H22.3705C22.0514 0 21.7608 0.185512 21.6265 0.476111L21.0375 1.75656L20.163 2.11982L18.8468 1.63334C18.5471 1.52178 18.21 1.59702 17.9852 1.82275L16.5643 3.24979C16.3396 3.47552 16.2647 3.81411 16.3745 4.1151L16.8588 5.43965L16.4971 6.31791L15.2209 6.90946C14.9316 7.04438 14.7443 7.33629 14.7443 7.65671V9.6727C14.7443 9.99314 14.929 10.285 15.2209 10.4199L16.4971 11.0115L16.8588 11.8898L16.3745 13.2117C16.2634 13.5127 16.3383 13.8513 16.563 14.077L17.9839 15.5041C18.21 15.7311 18.5458 15.805 18.8455 15.6935L20.1617 15.207L21.0362 15.5703L21.6252 16.852C21.7595 17.1426 22.0501 17.3307 22.3692 17.3307H24.3764C24.6955 17.3307 24.9861 17.1452 25.1205 16.852L25.7094 15.5703L26.5839 15.207L27.9027 15.6935C28.2024 15.805 28.5395 15.7298 28.7643 15.5028L30.1851 14.0757C30.4112 13.8487 30.4848 13.5114 30.3737 13.2104L29.8894 11.8885L30.2511 11.0102L31.526 10.4187C31.8153 10.2837 32 9.99183 32 9.67141V7.65541C32 7.33498 31.8153 7.04306 31.526 6.90816L31.5272 6.91076ZM30.3647 9.14731L29.2745 9.65325C29.0872 9.74017 28.94 9.89454 28.8612 10.0853L28.2541 11.5577C28.1753 11.7484 28.1714 11.9625 28.2425 12.157L28.6571 13.2883L27.9777 13.9707L26.85 13.5542C26.6563 13.4829 26.4431 13.4881 26.2533 13.5659L24.7872 14.1756C24.5973 14.2548 24.4436 14.4027 24.3571 14.5908L23.8533 15.687H22.8923L22.3886 14.5908C22.302 14.4027 22.1483 14.2548 21.9584 14.1756L20.4924 13.5659C20.3025 13.4868 20.0893 13.4829 19.8956 13.5542L18.7693 13.9707L18.0898 13.2883L18.5045 12.157C18.5755 11.9625 18.5704 11.7484 18.4928 11.5577L17.8858 10.0853C17.807 9.89455 17.6597 9.74016 17.4724 9.65325L16.381 9.14731V8.18214L17.4724 7.6762C17.6597 7.58928 17.807 7.43491 17.8858 7.2442L18.4928 5.77176C18.5716 5.58106 18.5755 5.36698 18.5045 5.1724L18.0898 4.03984L18.7693 3.35746L19.8956 3.77389C20.0894 3.84524 20.3025 3.84005 20.4924 3.76222L21.9584 3.1525C22.1483 3.07336 22.302 2.92547 22.3886 2.73736L22.8923 1.64243H23.8533L24.3571 2.73736C24.4436 2.92547 24.5973 3.07336 24.7872 3.1525L26.2533 3.76222C26.4431 3.84135 26.6563 3.84524 26.85 3.77389L27.9777 3.35746L28.6571 4.03984L28.2425 5.1724C28.1714 5.367 28.1766 5.58106 28.2541 5.77176L28.8612 7.2442C28.94 7.4349 29.0872 7.58929 29.2745 7.6762L30.3647 8.18214V9.14731Z" fill="white"></path>
</svg>