<svg width="34" height="35" viewBox="0 0 34 35" fill="#ffffff" xmlns="http://www.w3.org/2000/svg">
<path fill-rule="evenodd" clip-rule="evenodd" d="M15.5388 33.9719C15.995 33.7903 16.2827 33.3417 16.2538 32.8575V27.2568C16.2538 26.9993 16.4656 26.7904 16.7268 26.7904C16.988 26.7904 17.1999 26.9993 17.1999 27.2568V32.8575C17.1722 33.3417 17.4598 33.7891 17.916 33.9707C18.0833 34.036 18.2614 34.0692 18.4408 34.0681V34.0704V34.0692C18.6213 34.0704 18.7995 34.036 18.9667 33.9707C19.4229 33.7892 19.7106 33.3417 19.6817 32.8575V22.6533C19.6817 22.4978 19.7611 22.3518 19.8935 22.2652C20.8215 21.5911 21.6315 20.771 22.2911 19.8382C22.9567 18.8222 23.5441 17.7577 24.0472 16.6541C24.2446 16.3182 24.2289 15.9004 24.0087 15.58C23.9328 15.4791 23.8366 15.3972 23.7258 15.3379C23.6211 15.2809 23.5032 15.2489 23.384 15.2429C23.0253 15.256 22.7052 15.4696 22.5619 15.7936C21.4775 17.689 20.2678 18.9886 19.0077 19.6886L19.0089 19.6898C18.3192 20.0993 17.5308 20.3153 16.7268 20.3153C15.9216 20.3153 15.1332 20.0993 14.4448 19.6898C13.1846 18.9896 11.975 17.6901 10.8905 15.7948V15.7936C10.7473 15.4708 10.4284 15.256 10.0697 15.2429C9.95051 15.2489 9.83376 15.2809 9.72783 15.3379C9.6171 15.3972 9.52081 15.4803 9.44619 15.58C9.22472 15.9004 9.20907 16.3182 9.40647 16.6553C9.91078 17.7578 10.4982 18.8224 11.1637 19.8393C11.8233 20.771 12.6333 21.5911 13.5613 22.2652C13.6937 22.3518 13.7732 22.4978 13.7732 22.6545V32.8575C13.7443 33.3417 14.0332 33.7903 14.4881 33.9719C14.8263 34.1001 15.2006 34.1001 15.5388 33.9719ZM16.7268 34.2413C16.5017 34.5048 16.2141 34.7078 15.8891 34.8335C15.327 35.0555 14.6999 35.0555 14.1366 34.8335C13.3157 34.5214 12.7886 33.7251 12.8271 32.8575V22.8811C11.8858 22.1738 11.0626 21.3252 10.3885 20.3663C9.69405 19.3112 9.0814 18.2051 8.55783 17.0586C8.20035 16.4118 8.25212 15.6201 8.68903 15.0232C8.8467 14.8143 9.04892 14.641 9.28122 14.5176C9.51352 14.393 9.77231 14.323 10.0359 14.3135C10.7484 14.3052 11.4008 14.7039 11.7089 15.3377C12.7067 17.0811 13.7936 18.2608 14.9033 18.8803C16.0226 19.5484 17.426 19.5484 18.5453 18.8803C19.6575 18.2619 20.7431 17.0811 21.7397 15.3377C22.0478 14.7039 22.7001 14.3052 23.4115 14.3135C23.6763 14.323 23.9351 14.393 24.1674 14.5176C24.3997 14.641 24.6019 14.8131 24.7583 15.0232C25.1965 15.6201 25.247 16.4118 24.8907 17.0586C24.3672 18.205 23.7545 19.3111 23.06 20.3663C22.386 21.3252 21.5627 22.1738 20.6203 22.8811V32.8575C20.66 33.7251 20.1328 34.5214 19.312 34.8335C19.0327 34.9427 18.7354 34.9985 18.4357 34.9985C18.1348 34.9985 17.8375 34.9415 17.5595 34.8324C17.2357 34.7066 16.9492 34.5036 16.7254 34.2413L16.7268 34.2413ZM14.8094 13.2975C15.7242 12.3955 17.1565 12.2567 18.2324 12.9652C19.3072 13.6737 19.7261 15.0326 19.2314 16.2113C18.7367 17.3886 17.4657 18.0579 16.1971 17.8099C14.9285 17.5607 14.0149 16.464 14.0149 15.1882C14.0137 14.4785 14.3003 13.7984 14.8094 13.2975ZM16.7268 13.4459C17.5694 13.4459 18.2951 14.0334 18.4588 14.8487C18.6237 15.6629 18.1808 16.4794 17.402 16.7975C16.6245 17.1155 15.7254 16.8473 15.2572 16.1554C14.789 15.4647 14.8817 14.5437 15.4775 13.9562C15.8085 13.6298 16.2574 13.4459 16.7256 13.4459H16.7268ZM17.9473 3.93467L16.7256 1.51L15.516 3.91331C15.451 4.06166 15.3126 4.1661 15.1513 4.18865L12.4359 4.58387L14.3834 6.46378C14.5025 6.56941 14.5591 6.72844 14.5326 6.88509L14.074 9.55662L16.5041 8.30334C16.6413 8.23213 16.805 8.23095 16.9435 8.30215L19.3772 9.55661L18.9186 6.88509H18.9174C18.8921 6.73674 18.9426 6.58364 19.0522 6.47803L21.0153 4.58386L18.2999 4.18865H18.2987C18.1446 4.16729 18.0123 4.07234 17.9437 3.93586L17.9473 3.93467ZM17.1493 0.259009L18.6815 3.30545L22.0925 3.80154V3.80035C22.2742 3.82883 22.4235 3.95701 22.4752 4.13027C22.527 4.30355 22.4728 4.49225 22.3344 4.61211L19.8886 6.97267L20.4652 10.3266C20.4965 10.5058 20.417 10.6862 20.2654 10.7882C20.1125 10.8891 19.9127 10.8939 19.7563 10.8001L16.7256 9.2359L13.6684 10.812V10.8132C13.5107 10.8939 13.3193 10.8808 13.1749 10.7764C13.0304 10.6731 12.957 10.4987 12.9871 10.3254L13.5624 6.97148L11.0974 4.59193C10.971 4.46731 10.9265 4.28336 10.9819 4.1172C11.0372 3.94986 11.1841 3.82762 11.3598 3.80031L14.7708 3.30423L16.303 0.259912C16.3824 0.100879 16.5461 0 16.7255 0C16.9048 0 17.0685 0.100879 17.1479 0.259912L17.1493 0.259009ZM29.898 7.20199L28.8785 5.17491L27.8687 7.18182V7.18063C27.8037 7.32898 27.6653 7.43342 27.504 7.45597L25.234 7.7859L26.8601 9.35487L26.8589 9.35606C26.9792 9.46169 27.0358 9.62191 27.0093 9.77856L26.6242 12.0122L28.6559 10.9642C28.7931 10.893 28.958 10.893 29.0952 10.9642L31.1305 12.0145L30.7466 9.78093C30.7213 9.63139 30.7707 9.47948 30.8802 9.37265L32.5207 7.78827L30.2531 7.45595C30.099 7.43458 29.9666 7.33967 29.898 7.20199ZM29.2998 3.92404L30.6322 6.5718L33.5991 7.00263L33.5979 7.00381C33.7797 7.03111 33.9289 7.15928 33.9807 7.33255C34.0324 7.50582 33.9783 7.69334 33.8411 7.8132L31.7167 9.86401L32.2174 12.7812C32.2463 12.9592 32.168 13.1384 32.0152 13.2405C31.8635 13.3426 31.6649 13.3473 31.5073 13.2547L28.8762 11.897L26.2174 13.2678L26.2186 13.269C26.0597 13.3497 25.8695 13.3354 25.7251 13.2334C25.5806 13.1301 25.5072 12.9545 25.5361 12.7812L26.0368 9.86398L23.8932 7.79418L23.8944 7.79536C23.7668 7.67194 23.7211 7.4868 23.7764 7.31945C23.8318 7.15211 23.9786 7.02987 24.1556 7.00494L27.1225 6.57174L28.4549 3.92398H28.4537C28.5331 3.76613 28.698 3.66525 28.8774 3.66525C29.0567 3.66525 29.2204 3.76619 29.2998 3.92404ZM6.14474 7.20199L5.12528 5.17491L4.11545 7.18182V7.18063C4.05046 7.32898 3.91204 7.43342 3.75076 7.45597L1.48073 7.7859L3.1068 9.35487L3.1056 9.35606C3.22596 9.46169 3.28253 9.62072 3.25605 9.77856L2.8721 12.0122L4.90382 10.9642C5.04103 10.893 5.20472 10.893 5.34194 10.9642L7.37727 12.0145L6.99332 9.78093C6.96804 9.63139 7.01859 9.47948 7.12812 9.37265L8.76865 7.78827L6.49862 7.45835C6.34576 7.43698 6.21216 7.34204 6.14356 7.20437L6.14474 7.20199ZM5.54775 3.92404L6.87895 6.5718L9.84586 7.00263L9.84707 7.00381C10.0276 7.03111 10.1769 7.15928 10.2286 7.33255C10.2804 7.50582 10.2262 7.69334 10.089 7.8132L7.96463 9.86401L8.46533 12.7812C8.49422 12.9592 8.41598 13.1384 8.26433 13.2405C8.11147 13.3426 7.91408 13.3473 7.75641 13.2547L5.12529 11.897L2.4677 13.2678L2.4665 13.269C2.30882 13.3497 2.11745 13.3354 1.973 13.2334C1.82857 13.1301 1.75515 12.9545 1.78404 12.7812L2.28474 9.86398L0.141106 7.79418C0.013523 7.67075 -0.0322155 7.48561 0.0231518 7.31827C0.0797207 7.15093 0.226564 7.02869 0.403503 7.00375L3.37042 6.57174L4.70282 3.92398C4.78226 3.76613 4.94595 3.66525 5.12529 3.66525C5.30463 3.66525 5.46831 3.76619 5.54775 3.92404Z" fill="white"></path>
</svg>