<svg width="80" height="79" viewBox="0 0 80 79" fill="none" xmlns="http://www.w3.org/2000/svg">
<path d="M57.3841 21.789C54.1587 9.27905 42.7303 0 29.1427 0C13.0788 0 0 13.0028 0 28.9715C0 42.7192 9.67604 54.2443 22.6159 57.211C25.8413 69.7209 37.2827 79 50.8573 79C66.9334 79 80 65.9972 80 50.0285C80 36.2808 70.324 24.7557 57.3841 21.789ZM51.9492 28.972C51.9492 41.4698 41.727 51.644 29.1553 51.644C28.8124 51.644 28.4823 51.6062 28.1394 51.5935C28.1013 51.076 28.0632 50.5584 28.0632 50.0282C28.0632 37.5304 38.2854 27.3561 50.8571 27.3561C51.1999 27.3561 51.5301 27.394 51.873 27.4066C51.9111 27.9242 51.9492 28.4417 51.9492 28.972ZM6.34924 28.972C6.34924 16.4741 16.5714 6.31202 29.1431 6.31202C38.9085 6.31202 47.2387 12.4599 50.4765 21.0567C34.5785 21.2587 21.702 34.1726 21.702 50.0282V50.3817C12.7753 47.3014 6.33705 38.8816 6.33705 28.9845L6.34924 28.972ZM50.8577 72.6881C41.0923 72.6881 32.7621 66.5403 29.5243 57.9435C45.4223 57.7415 58.2988 44.8276 58.2988 28.972V28.6185C67.2255 31.6987 73.6638 40.1185 73.6638 50.0157C73.6638 62.5135 63.4416 72.6756 50.8699 72.6756L50.8577 72.6881Z" fill="black"/>
</svg>
