<svg width="80" height="80" viewBox="0 0 80 80" fill="none" xmlns="http://www.w3.org/2000/svg">
<path d="M40 0C29.3887 0 19.2158 4.21533 11.7153 11.7153C4.21479 19.2153 0 29.3891 0 40C0 50.6109 4.21533 60.7842 11.7153 68.2847C19.2153 75.7852 29.3891 80 40 80C50.6109 80 60.7842 75.7847 68.2847 68.2847C75.7852 60.7847 80 50.6109 80 40C80 29.3891 75.7847 19.2158 68.2847 11.7153C60.7847 4.2148 50.6109 0 40 0ZM40 71.1117C31.75 71.1117 23.8331 67.8338 17.9998 62.0005C12.1665 56.1672 8.88861 48.2504 8.88861 40.0004C8.88861 31.7503 12.1665 23.8335 17.9998 18.0002C23.8331 12.1669 31.75 8.88897 40 8.88897C48.25 8.88897 56.1669 12.1669 62.0002 18.0002C67.8335 23.8335 71.1114 31.7503 71.1114 40.0004C71.1114 48.2504 67.8335 56.1672 62.0002 62.0005C56.1669 67.8338 48.25 71.1117 40 71.1117Z" fill="black"/>
<path d="M40 17.7779C31.0138 17.7779 22.9095 23.1947 19.4718 31.4933C16.0273 39.7989 17.9301 49.3619 24.2843 55.7157C30.6385 62.0699 40.2011 63.9727 48.5067 60.5282C56.8055 57.0906 62.2221 48.9864 62.2221 40C62.2221 34.1041 59.8818 28.4513 55.715 24.2847C51.5482 20.118 45.8959 17.7779 40 17.7779ZM40 53.3338C34.604 53.3338 29.743 50.0838 27.6804 45.1046C25.6178 40.1184 26.7568 34.3824 30.5693 30.5697C34.3818 26.7572 40.118 25.6182 45.1042 27.6808C50.0835 29.7434 53.3335 34.6044 53.3335 40.0004C53.3335 47.3615 47.3611 53.3338 40 53.3338Z" fill="black"/>
</svg>
