<svg width="80" height="80" viewBox="0 0 80 80" fill="none" xmlns="http://www.w3.org/2000/svg">
<path d="M18.5565 48.3037C19.1715 48.3037 19.7613 48.548 20.1962 48.9829C20.6311 49.4177 20.8754 50.0075 20.8754 50.6224V77.6813C20.8754 78.2963 20.6311 78.886 20.1962 79.3208C19.7613 79.7557 19.1715 80 18.5565 80H2.33043C2.02495 80.0015 1.72217 79.9427 1.43949 79.8268C1.15682 79.711 0.899821 79.5404 0.683267 79.325C0.466713 79.1095 0.294871 78.8534 0.177614 78.5713C0.0603566 78.2892 -3.8185e-06 77.9868 1.81181e-10 77.6813V50.6224C1.81181e-10 49.3471 1.04348 48.3037 2.33043 48.3037H18.5565ZM4.66667 75.3568H16.2261V52.9353H4.66667V75.3568ZM48.1159 7.24653e-06C48.4209 -0.000755205 48.7231 0.0586562 49.0051 0.174839C49.2871 0.291022 49.5434 0.461693 49.7594 0.677078C49.9753 0.892462 50.1466 1.14833 50.2635 1.43002C50.3804 1.71171 50.4406 2.0137 50.4406 2.31868V77.6755C50.4406 78.9508 49.3971 79.9942 48.1217 79.9942H31.8957C31.5902 79.9957 31.2874 79.9369 31.0047 79.821C30.722 79.7052 30.465 79.5346 30.2485 79.3192C30.0319 79.1037 29.8601 78.8476 29.7428 78.5655C29.6256 78.2834 29.5652 77.981 29.5652 77.6755V2.31868C29.5652 1.04341 30.6087 7.24653e-06 31.8957 7.24653e-06H48.1159ZM34.2319 75.3568H45.7855V4.63735H34.2319V75.3568ZM77.6812 20.6536C78.2962 20.6536 78.886 20.8979 79.3208 21.3327C79.7557 21.7675 80 22.3573 80 22.9722V77.6755C80 78.2905 79.7557 78.8802 79.3208 79.315C78.886 79.7499 78.2962 79.9942 77.6812 79.9942H61.4609C61.1554 79.9957 60.8526 79.9369 60.5699 79.821C60.2872 79.7052 60.0303 79.5346 59.8137 79.3192C59.5971 79.1037 59.4253 78.8476 59.308 78.5655C59.1908 78.2834 59.1304 77.981 59.1304 77.6755V22.9722C59.1304 21.697 60.1739 20.6536 61.4609 20.6536H77.6812ZM63.7913 75.3626H75.3507V25.2967H63.7913V75.3626Z" fill="black"/>
</svg>
