<svg width="80" height="80" viewBox="0 0 80 80" fill="none" xmlns="http://www.w3.org/2000/svg">
<path d="M40 0C29.3914 0 19.2186 4.21484 11.7183 11.7183C4.21484 19.2181 0 29.3914 0 40C0 50.6086 4.21484 60.7814 11.7183 68.2817C19.2181 75.7852 29.3914 80 40 80C50.6086 80 60.7814 75.7852 68.2817 68.2817C75.7852 60.7819 80 50.6086 80 40C80 29.3914 75.7852 19.2186 68.2817 11.7183C60.7819 4.21484 50.6086 0 40 0ZM40 74.0001C30.9816 74.0001 22.3346 70.4152 15.9595 64.0404C9.58433 57.6656 5.99981 49.0188 5.99981 39.9999C5.99981 30.981 9.58472 22.3346 15.9595 15.9594C22.3343 9.58425 30.9811 5.99972 40 5.99972C49.0189 5.99972 57.6654 9.58463 64.0405 15.9594C70.4157 22.3342 74.0002 30.981 74.0002 39.9999C74.0002 49.0188 70.4153 57.6653 64.0405 64.0404C57.6657 70.4156 49.0189 74.0001 40 74.0001Z" fill="black"/>
<path d="M52.1388 51.8796C48.9851 55.0857 44.6878 56.912 40.192 56.957C35.6921 57.002 31.3573 55.2621 28.1396 52.1196C26.9321 51.2084 25.2335 51.3396 24.1797 52.4309C23.1259 53.5183 23.051 55.2207 23.9997 56.3982C28.3609 60.6319 34.2186 62.9681 40.2933 62.893C46.3681 62.818 52.1652 60.3393 56.4217 56.0007C57.0104 55.4382 57.3442 54.662 57.3517 53.8483C57.3592 53.0345 57.0329 52.2545 56.4517 51.6846C55.8742 51.1146 55.0867 50.8071 54.2731 50.8296C53.4593 50.8484 52.6907 51.2008 52.1393 51.8008L52.1388 51.8796Z" fill="black"/>
<path d="M32.0015 33.981C32.0015 37.2921 29.3129 39.9808 26.0017 39.9808C22.6869 39.9808 20.0019 37.2921 20.0019 33.981C20.0019 30.6661 22.6869 27.9812 26.0017 27.9812C29.3129 27.9812 32.0015 30.6661 32.0015 33.981Z" fill="black"/>
<path d="M59.9981 33.981C59.9981 37.2921 57.3131 39.9808 53.9983 39.9808C50.6872 39.9808 47.9985 37.2921 47.9985 33.981C47.9985 30.6661 50.6872 27.9812 53.9983 27.9812C57.3131 27.9812 59.9981 30.6661 59.9981 33.981Z" fill="black"/>
</svg>
