<svg width="80" height="80" viewBox="0 0 80 80" fill="none" xmlns="http://www.w3.org/2000/svg">
<path d="M26.7151 56.6666C27.0765 56.6666 27.4313 56.608 27.7731 56.4908L47.7732 49.8242C48.766 49.4922 49.544 48.711 49.8728 47.7181L56.5395 27.7182C56.9399 26.5203 56.6274 25.1987 55.7354 24.3067C54.8435 23.4115 53.5219 23.099 52.3239 23.4994L32.3238 30.1661C31.331 30.5013 30.553 31.2826 30.2242 32.2754L23.5575 52.2753C23.2157 53.291 23.385 54.4107 24.01 55.2799C24.6382 56.149 25.6441 56.6666 26.7151 56.6666ZM36.0152 35.9667L48.1153 31.9335L44.0821 44.0335L31.982 48.0667L36.0152 35.9667Z" fill="black"/>
<path d="M40.0485 79.9999C52.487 79.9836 64.2087 74.1861 71.7671 64.3099C79.3224 54.4333 81.858 41.6017 78.6226 29.5934C75.3869 17.5851 66.7509 7.76429 55.2533 3.02098C43.7557 -1.71859 30.7057 -0.846178 19.9473 5.3908C9.18553 11.6245 1.93632 22.5099 0.334645 34.844C-1.2702 47.1782 2.95508 59.554 11.7639 68.3339C19.2672 75.8274 29.4435 80.0257 40.0485 79.9999ZM16.4742 16.4326C22.7243 10.1826 31.2043 6.6668 40.0452 6.6668C48.8861 6.6668 57.3628 10.1759 63.6162 16.4293C69.8695 22.6792 73.3821 31.1592 73.3821 40C73.3821 48.8408 69.8697 57.3208 63.6162 63.5708C57.3629 69.824 48.8861 73.3332 40.0452 73.3332C31.2043 73.3332 22.7243 69.8176 16.4742 63.5674C10.2015 57.3272 6.67585 48.8475 6.67585 40C6.67585 31.1525 10.2013 22.6726 16.4742 16.4326Z" fill="black"/>
</svg>
