<svg width="80" height="80" viewBox="0 0 80 80" fill="none" xmlns="http://www.w3.org/2000/svg">
<path d="M40 80C62.0572 80 80 62.0572 80 40C80 17.9428 62.0572 0 40 0C17.9428 0 0 17.9428 0 40C0 62.0572 17.9428 80 40 80ZM38.0013 4.10579V6.00326C38.0013 7.10569 38.8976 8.00192 40 8.00192C41.1024 8.00192 41.9987 7.1057 41.9987 6.00326V4.10579C60.2496 5.11452 74.8853 19.7504 75.8942 38.0013H73.9967C72.8943 38.0013 71.9981 38.8976 71.9981 40C71.9981 41.1024 72.8943 41.9987 73.9967 41.9987H75.8942C74.8855 60.2496 60.2496 74.8853 41.9987 75.8942V73.9967C41.9987 72.8943 41.1024 71.9981 40 71.9981C38.8976 71.9981 38.0013 72.8943 38.0013 73.9967V75.8942C19.7504 74.8855 5.11472 60.2496 4.10579 41.9987H6.00326C7.10569 41.9987 8.00192 41.1024 8.00192 40C8.00192 38.8976 7.1057 38.0013 6.00326 38.0013H4.10579C5.11452 19.7504 19.7504 5.11472 38.0013 4.10579Z" fill="black"/>
<path d="M17.002 65.0005C17.2608 65.0005 17.527 64.9517 17.7745 64.843L50.185 51.2537C50.6687 51.0512 51.0512 50.6649 51.2575 50.1812L64.8468 17.7707C65.1618 17.0207 64.9893 16.1582 64.4155 15.5846C63.8381 15.0071 62.9793 14.8421 62.2294 15.1533L29.8189 28.7427C29.3352 28.9451 28.9527 29.3314 28.7464 29.8151L15.1571 62.2256C14.8421 62.9756 15.0146 63.8381 15.5884 64.4117C15.9708 64.7942 16.4808 64.9967 17.0021 64.9967L17.002 65.0005ZM32.1215 32.1215L59.2666 20.7373L47.8823 47.8823L20.7373 59.2666L32.1215 32.1215Z" fill="black"/>
<path d="M40 32.0015C35.5863 32.0015 32.0015 35.5902 32.0015 40C32.0015 44.4136 35.5902 47.9985 40 47.9985C44.4136 47.9985 47.9985 44.4098 47.9985 40C47.9985 35.5863 44.4098 32.0015 40 32.0015ZM40 44.0012C37.795 44.0012 35.9988 42.2087 35.9988 40C35.9988 37.795 37.7913 35.9988 40 35.9988C42.205 35.9988 44.0012 37.7913 44.0012 40C44.0012 42.205 42.2087 44.0012 40 44.0012Z" fill="black"/>
</svg>
